<?xml version="1.0" encoding="utf-8"?>
<!-- Generator: Adobe Illustrator 17.0.0, SVG Export Plug-In . SVG Version: 6.00 Build 0)  -->
<!DOCTYPE svg PUBLIC "-//W3C//DTD SVG 1.1//EN" "http://www.w3.org/Graphics/SVG/1.1/DTD/svg11.dtd">
<svg version="1.1" id="Слой_1" xmlns:serif="http://www.serif.com/"
	 xmlns="http://www.w3.org/2000/svg" xmlns:xlink="http://www.w3.org/1999/xlink" x="0px" y="0px" width="433.029px"
	 height="562.712px" viewBox="175.197 103.318 433.029 562.712" enable-background="new 175.197 103.318 433.029 562.712"
	 xml:space="preserve">
<g transform="matrix(1,0,0,1,-915,-186)">
	<g transform="matrix(1,0,0,1,-2.70313,-174.5)">
		<g transform="matrix(1.55361,0,0,1.55361,503.793,152.114)">
			<g transform="matrix(-0.643663,0,0,0.45774,1084.52,-14.7244)">
				<path fill="#5B6FD0" d="M725.413,1021.069v240.679h78.596c0,0-0.613-150.813-0.613-165.663s3.132-14.85,7.184-14.85
					s8.011,4.673,8.651,14.85c0.639,10.177,0.028,165.663,0.028,165.663h73.753v-244.119L725.413,1021.069z"/>
			</g>
			<g transform="matrix(1.4069,0,0,1.4069,-657.916,-139.605)">
				<path fill="#BFC4EC" d="M844.609,303.845l57.149,3.668l12.658,21.173l-1.559,51.536c0,0,0,25.049,0,38.012
					c0,1.986-0.804,3.886-2.235,5.266c-1.425,1.38-3.349,2.121-5.338,2.054c-17.138-0.583-58.756-1.998-75.982-2.585
					c-4.245-0.144-7.58-3.682-7.475-7.928c0.421-16.97,1.396-56.214,1.396-56.214l5.234-35.102L844.609,303.845z"/>
			</g>
			<g transform="matrix(1.4069,0,0,1.4069,-657.916,-139.605)">
				
					<linearGradient id="SVGID_1_" gradientUnits="userSpaceOnUse" x1="657.2274" y1="557.1824" x2="658.2274" y2="557.1824" gradientTransform="matrix(32.3634 129.8486 129.849 -32.3634 -92710.9688 -66979.6875)">
					<stop  offset="0" style="stop-color:#BFC4EC"/>
					<stop  offset="1" style="stop-color:#9FA1EB"/>
				</linearGradient>
				<path fill="none" stroke="url(#SVGID_1_)" stroke-width="43.46" stroke-linejoin="round" stroke-miterlimit="1.5" d="
					M899.234,318.684c0,0,13.371,1.3,17.165,1.838c3.794,0.538,10.504,1.875,8.59,23.519c-1.554,17.557-2.599,29.378-2.599,29.378
					s0.981,12.251-15.466,10.361c-17.658-2.028-33.762-3.048-33.762-3.048"/>
			</g>
			<g transform="matrix(1.4069,0,0,1.4069,-657.916,-139.605)">
				
					<linearGradient id="SVGID_2_" gradientUnits="userSpaceOnUse" x1="657.228" y1="557.0429" x2="658.228" y2="557.0429" gradientTransform="matrix(-21.6529 119.5208 119.5211 21.6529 -51550.1719 -90276.6953)">
					<stop  offset="0" style="stop-color:#BFC4EC"/>
					<stop  offset="1" style="stop-color:#9FA1EB"/>
				</linearGradient>
				<path fill="none" stroke="url(#SVGID_2_)" stroke-width="43.46" stroke-linejoin="round" stroke-miterlimit="1.5" d="
					M753.182,341.421c0,0,4.095,12.458,12.924,21.344c8.319,8.373,26.798,14.892,40.928,6.288
					c9.988-6.081,14.942-18.04,15.964-27.632c1.893-17.768,3.015-27.593,22.088-26.303"/>
			</g>
			<g transform="matrix(1.57522,-0.773246,0.619953,1.26294,-1038.61,543.288)">
				<path fill="#DFE2FF" d="M800.186,319.884c0-2.248-1.463-4.073-3.265-4.073l-18.673,0c-1.802,0-3.266,1.825-3.266,4.073v4.815
					c0,2.248,1.464,4.073,3.266,4.073l18.673,0c1.802,0,3.265-1.825,3.265-4.073V319.884z"/>
			</g>
			<g transform="matrix(1.26834,0,0,1.26834,-241.868,34.8794)">
				<circle fill="#FB767A" cx="628.665" cy="282.172" r="11.827"/>
			</g>
			<g transform="matrix(0.180712,-1.74545,1.39942,0.144886,124.816,1894.21)">
				<path fill="#DFE2FF" d="M888.591,200.521c0-2.248-1.463-4.073-3.265-4.073h-18.673c-1.802,0-3.266,1.825-3.266,4.073v4.815
					c0,2.248,1.464,4.073,3.266,4.073h18.673c1.802,0,3.265-1.825,3.265-4.073V200.521z"/>
			</g>
			<g transform="matrix(-0.89694,-0.0487534,-0.0487534,0.89694,1001.83,90.459)">
				<path fill="#FB767A" d="M501.445,163.515c0,0,6.561,7.564,8.194,13.438c1.634,5.875,1.416,19.695,0,27.555
					c-1.415,7.86-2.799,18.139-10.784,21.001c-7.986,2.862-12.745,5.028-12.745,5.028s0.144,19.238,0,23.627
					c-0.144,4.389-0.292,22.464-20.49,22.464s-19.393-17.16-19.354-22.464s0-76.704,0-76.704S477.643,147.605,501.445,163.515z"/>
				<g transform="matrix(1,-2.08167e-17,2.08167e-17,1,-15.6835,1.62756)">
					
						<linearGradient id="SVGID_3_" gradientUnits="userSpaceOnUse" x1="799.2888" y1="659.0562" x2="800.2888" y2="659.0562" gradientTransform="matrix(-7.5024 -1.5512 1.5512 -7.5024 5482.9751 6380.8877)">
						<stop  offset="0" style="stop-color:#FB767A"/>
						<stop  offset="1" style="stop-color:#F94D57"/>
					</linearGradient>
					<path fill="url(#SVGID_3_)" d="M511.632,189.39c0,0,1.958,12.835,1.127,13.736c-0.831,0.901-5.179,0.898-5.179,0.898
						S504.171,190.367,511.632,189.39z"/>
				</g>
				<g transform="matrix(1,-2.08167e-17,2.08167e-17,1,-16.0944,0.823732)">
					<path fill="#F5F4F0" d="M501.026,208.422l12.8,1.762c0,0-0.638,6.445-5.678,5.669
						C503.108,215.077,501.026,208.422,501.026,208.422z"/>
				</g>
				<g transform="matrix(1,-2.08167e-17,2.08167e-17,1,-16.0944,0.823732)">
					<circle cx="497.594" cy="190.373" r="1.947"/>
				</g>
				<g transform="matrix(1,-5.61203e-17,2.26442e-17,1.08779,23.2369,-10.7075)">
					
						<ellipse transform="matrix(0.0543 -0.9985 0.9985 0.0543 267.7126 654.4312)" cx="479.341" cy="185.886" rx="2.956" ry="2.718"/>
				</g>
				<path fill="#28255E" d="M478.483,148.856c8.077,0.139,29.903,5.041,34.366,13.064c5.659,10.175-1.499,15.85-3.442,13.644
					c-8.454-9.601-11.451-10.453-12.532-6.134c-1.855,7.408-2.634,15.697-24.376,11.809c0,0,0.774,18.001-6.429,21.451
					c-7.204,3.451-2.879,11.662-10.147,14.136c-7.268,2.474-16.899-0.504-20.331-3.992c-5.272-5.357-11.922-15.056-0.15-41.29
					C447.214,145.31,468.962,148.693,478.483,148.856z"/>
			</g>
		</g>
	</g>
</g>
</svg>
