<?xml version="1.0" encoding="utf-8"?>
<!-- Generator: Adobe Illustrator 17.0.0, SVG Export Plug-In . SVG Version: 6.00 Build 0)  -->
<!DOCTYPE svg PUBLIC "-//W3C//DTD SVG 1.1//EN" "http://www.w3.org/Graphics/SVG/1.1/DTD/svg11.dtd">
<svg version="1.1" id="Слой_1" xmlns:serif="http://www.serif.com/"
	 xmlns="http://www.w3.org/2000/svg" xmlns:xlink="http://www.w3.org/1999/xlink" x="0px" y="0px" width="406.757px"
	 height="409.742px" viewBox="102.743 192.758 406.757 409.742" enable-background="new 102.743 192.758 406.757 409.742"
	 xml:space="preserve">
<g transform="matrix(1,0,0,1,-2600,0)">
	<g id="Artboard5" transform="matrix(0.5,0,0,0.5,1300,0)">
		<rect x="2600" y="180" fill="none" width="1224" height="1224"/>
		<g>
			<defs>
				<rect id="SVGID_1_" x="2906" y="486" width="612" height="612"/>
			</defs>
			<clipPath id="SVGID_2_">
				<use xlink:href="#SVGID_1_"  overflow="visible"/>
			</clipPath>
			<g clip-path="url(#SVGID_2_)">
				<g transform="matrix(2.39104,0,0,2.39638,1770.21,-241.239)">
					<ellipse fill="#6166AB" cx="602.995" cy="431.167" rx="203.306" ry="203.76"/>
				</g>
				<g transform="matrix(2.64958,0,0,2.90176,129.215,-968.34)">
					<path fill="#DFDFD9" d="M1031.632,706.497c-1.903-1.283-3.082-3.276-3.211-5.435c-0.129-2.156,0.804-4.255,2.546-5.72
						c63.183-53.15,142.62-103.926,269.468,8.593c1.306,1.163,1.979,2.809,1.816,4.472c-0.183,1.665-1.163,3.17-2.693,4.092
						C1271.997,729.043,1153.942,788.391,1031.632,706.497z"/>
				</g>
				<g transform="matrix(2,0,0,2,-2600,0)">
					<path fill="none" d="M2693.697,756.858l341.986,0.916c0,0,2.938-58.173-35.169-84.595"/>
				</g>
				<g transform="matrix(1.87305,0,0,1.83343,-2497.68,-336.872)">
					<g transform="matrix(1.02797,0,0,1.02797,63.0951,-9.66123)">
						<rect x="2772.347" y="482.476" fill="#7ECBC8" width="261.873" height="258.133"/>
					</g>
					<g transform="matrix(1.19567,0,0,1.04543,-553.82,-18.7617)">
						<rect x="2924.331" y="597.777" fill="#FFCCCF" width="75.723" height="139.169"/>
					</g>
					<g transform="matrix(1.47546,0,0,0.769137,-1292.47,75.5448)">
						<rect x="2943.93" y="686.665" fill="#FFCCCF" width="75.723" height="139.169"/>
					</g>
					<g transform="matrix(1,0,0,1,138.582,-1.22226)">
						<g transform="matrix(1,0,0,1,116.335,0.519709)">
							<path fill="#FFCCCF" d="M2896.206,486.795l30.416,0.284l0.735,77.934c0,0-17.115,19.521-30.151-0.277L2896.206,486.795z"/>
						</g>
						<g transform="matrix(1,0,0,1,13.8302,-0.363107)">
							<path fill="#FB787F" d="M2789.601,485.877l30.416,0.284l-0.102,78.354c0,0-16.279,19.101-29.315-0.698L2789.601,485.877z"/>
						</g>
						<g transform="matrix(1,0,0,1,42.9586,-0.0802911)">
							<path fill="#FB787F" d="M2819.895,486.171l30.416,0.284l0.796,78.277c0,0-1.897,4.951-7.65,7.83
								c-6.1,3.066-16.259,3.78-22.991-6.428L2819.895,486.171z"/>
						</g>
						<g transform="matrix(1,0,0,1,-0.96084,-0.341107)">
							<path fill="#FFCCCF" d="M2774.218,485.9l30.416,0.284l0.735,77.934c0,0-17.115,19.521-30.151-0.277L2774.218,485.9z"/>
						</g>
						<g transform="matrix(1,0,0,1,28.2752,-0.213107)">
							<path fill="#FFCCCF" d="M2804.624,486.033l30.416,0.284l-0.061,80.086c0,0-16.32,17.369-29.356-2.43L2804.624,486.033z"/>
						</g>
						<g transform="matrix(1,0,0,1,72.5384,0.0499451)">
							<path fill="#FB787F" d="M2850.657,486.306l30.416,0.284l-0.102,78.354c0,0-16.279,19.101-29.315-0.698L2850.657,486.306z"/>
						</g>
						<g transform="matrix(1,0,0,1,101.667,0.332761)">
							<path fill="#FB787F" d="M2880.951,486.6l30.416,0.284l0.796,78.277c0,0-1.897,4.951-7.65,7.83
								c-6.1,3.066-16.259,3.78-22.991-6.428L2880.951,486.6z"/>
						</g>
						<g transform="matrix(1,0,0,1,57.7474,0.0719451)">
							<path fill="#FFCCCF" d="M2835.275,486.329l30.416,0.284l0.735,77.934c0,0-17.115,19.521-30.151-0.277L2835.275,486.329z"/>
						</g>
						<g transform="matrix(1,0,0,1,86.9834,0.199945)">
							<path fill="#FFCCCF" d="M2865.68,486.462l30.416,0.284l-0.061,80.086c0,0-16.32,17.369-29.356-2.43L2865.68,486.462z"/>
						</g>
					</g>
					<g transform="matrix(0.880243,0,0,0.954663,344.568,18.7622)">
						<rect x="2964.866" y="628.431" fill="#FB787F" width="75.723" height="139.169"/>
					</g>
					<g transform="matrix(1.11127,0,0,0.576735,-255.097,148.873)">
						<rect x="2987.518" y="812.672" fill="#FB787F" width="75.723" height="139.169"/>
					</g>
					<g transform="matrix(1,0,0,1,-1.47852,-1.13672)">
						<rect x="2970.949" y="675.29" fill="#93DA84" width="37.409" height="15.89"/>
					</g>
					<g transform="matrix(0.95244,0,0,0.95244,140.289,16.1359)">
						<path fill="#DFDFD9" d="M3115.751,673.897l10.792,26.428h-21.583L3115.751,673.897z"/>
					</g>
					<g transform="matrix(0.95244,0,0,0.898941,138.91,38.0076)">
						<rect x="3135.237" y="680.978" fill="#93DA84" width="14.353" height="37.662"/>
					</g>
					<g transform="matrix(0.95244,0,0,0.46554,140.722,203.344)">
						<path fill="#93DA84" d="M3097.659,1001.788c0-5.298-2.061-9.598-4.59-9.598h-9.18c-2.53,0-4.59,4.3-4.59,9.598v19.802
							c0,5.296,2.061,9.596,4.59,9.596h9.18c2.53,0,4.59-4.3,4.59-9.596V1001.788z"/>
					</g>
				</g>
			</g>
		</g>
	</g>
</g>
</svg>
