<?xml version="1.0" encoding="utf-8"?>
<!-- Generator: Adobe Illustrator 17.0.0, SVG Export Plug-In . SVG Version: 6.00 Build 0)  -->
<!DOCTYPE svg PUBLIC "-//W3C//DTD SVG 1.1//EN" "http://www.w3.org/Graphics/SVG/1.1/DTD/svg11.dtd">
<svg version="1.1" id="Слой_1" xmlns:serif="http://www.serif.com/"
	 xmlns="http://www.w3.org/2000/svg" xmlns:xlink="http://www.w3.org/1999/xlink" x="0px" y="0px" width="486.113px"
	 height="488.286px" viewBox="62.941 151.857 486.113 488.286" enable-background="new 62.941 151.857 486.113 488.286"
	 xml:space="preserve">
<g transform="matrix(1,0,0,1,-1950,0)">
	<g id="Artboard4" transform="matrix(0.5,0,0,0.5,975,0)">
		<rect x="1950" y="180" fill="none" width="1224" height="1224"/>
		<g transform="matrix(2.39104,0,0,2.39638,1120.21,-241.239)">
			<ellipse fill="#6166AB" cx="602.995" cy="431.167" rx="203.306" ry="203.76"/>
		</g>
		<g transform="matrix(1.30683,0,0,1.32779,-468.197,-364.154)">
			<path fill="#FB787F" d="M2135.153,1007.777c0,0-39.393,7.523-45.145-18.127l-2.652-110.593c0,0,4.345-33.819,40.494-33.744
				c0,0,71.176-2.221,78.662-2.456c0.388-0.012,0.714-0.269,0.796-0.628c2.754-10.088,40.147-142.19,119.748-144.091
				c0,0,37.128-0.504,47.328-0.643c2.04-0.031,4.08-0.175,6.1-0.435c18.707-2.111,106.549-8.46,132.865,50.845
				c1.143,2.636,1.898,5.42,2.244,8.27c2.469,19.888,14.423,120.156,22.114,184.677c1.693,14.243-2.774,28.533-12.301,39.382
				s-23.236,17.26-37.801,17.669C2375.241,1001.051,2135.153,1007.777,2135.153,1007.777z"/>
		</g>
		<g transform="matrix(1.30678,-0.011627,0.0118135,1.32774,-464.798,-332.554)">
			<path fill="#FB787F" fill-opacity="0.3647" d="M2139.066,1015.705c0,0-39.393,7.523-45.145-18.127l-2.652-110.593
				c0,0,4.345-33.819,40.494-33.744c0,0,71.176-2.222,78.662-2.456c0.388-0.012,0.714-0.269,0.796-0.628
				c2.754-10.088,40.147-142.19,119.748-144.091c0,0,37.128-0.504,47.328-0.643c2.04-0.031,4.08-0.175,6.1-0.435
				c18.707-2.111,106.549-8.46,132.865,50.845c1.143,2.636,1.897,5.42,2.244,8.27c2.469,19.888,14.423,120.156,22.114,184.677
				c1.693,14.243-2.775,28.534-12.301,39.382c-9.527,10.849-23.236,17.26-37.801,17.668
				C2379.154,1008.979,2139.066,1015.705,2139.066,1015.705z"/>
		</g>
		<g transform="matrix(1.69551,0,0,1.69551,-1644.74,-275.624)">
			<circle fill="#FB787F" cx="2382.287" cy="731.836" r="41.135"/>
		</g>
		<g transform="matrix(1.69551,0,0,1.69551,-1488.14,-277.207)">
			<circle fill="#FB787F" cx="2478.343" cy="730.865" r="41.135"/>
		</g>
		<g transform="matrix(1.3015,0,0,1.39669,-448.174,-399.961)">
			<path fill="#DFDFD9" d="M2256.002,816.988c0,0,21.298-90.998,84.252-94.419l60.486-1.283l22.909,91.149L2256.002,816.988z"/>
		</g>
		<g transform="matrix(1.3015,0,0,1.35963,-448.174,-381.865)">
			<path fill="#DFDFD9" d="M2420.508,726.383l24.868,93.407c0,0,27.377-9.174,25.887-25.847c0,0-6.773-58.758-36.72-65.519
				L2420.508,726.383z"/>
		</g>
		<g transform="matrix(1.3276,0,0,1.3276,-785.212,-117.059)">
			<path fill="#DFDFD9" d="M2351.706,733.902c0-8.26-6.691-14.965-14.953-14.965h-5.018c-8.262,0-14.953,6.706-14.953,14.965v15.943
				c0,8.26,6.691,14.965,14.953,14.965h5.018c8.262,0,14.953-6.705,14.953-14.965V733.902z"/>
		</g>
		<g transform="matrix(1.40885,-0.193046,0.193046,1.40885,-1191.09,507.815)">
			
				<path fill="#FFFFFF" stroke="#FFFFFF" stroke-width="5.5" stroke-linecap="round" stroke-linejoin="round" stroke-miterlimit="1.5" d="
				M2380.251,513.194l33.211-0.806"/>
		</g>
		<g transform="matrix(-0.212246,-1.40608,1.40608,-0.212246,2378.94,3589.88)">
			
				<path fill="#FFFFFF" stroke="#FFFFFF" stroke-width="5.5" stroke-linecap="round" stroke-linejoin="round" stroke-miterlimit="1.5" d="
				M1955.774,231.12l33.211-0.806"/>
		</g>
		<g transform="matrix(1.40885,-0.193046,0.193046,1.40885,-919.207,583.111)">
			
				<path fill="#FFFFFF" stroke="#FFFFFF" stroke-width="5.5" stroke-linecap="round" stroke-linejoin="round" stroke-miterlimit="1.5" d="
				M2569.778,594.746l33.211-0.806"/>
		</g>
		<g transform="matrix(-0.212246,-1.40608,1.40608,-0.212246,2650.82,3665.17)">
			
				<path fill="#FFFFFF" stroke="#FFFFFF" stroke-width="5.5" stroke-linecap="round" stroke-linejoin="round" stroke-miterlimit="1.5" d="
				M1871.648,419.516l33.211-0.806"/>
		</g>
		<g transform="matrix(2.06752,-0.123592,0.123592,2.06752,-2579.88,155.297)">
			
				<path fill="#FFFFFF" stroke="#FFFFFF" stroke-width="5.5" stroke-linecap="round" stroke-linejoin="round" stroke-miterlimit="1.5" d="
				M2443.507,360.558l33.211-0.806"/>
		</g>
		<g transform="matrix(-0.151783,-2.06564,2.06564,-0.151783,2261.84,5028.55)">
			
				<path fill="#FFFFFF" stroke="#FFFFFF" stroke-width="5.5" stroke-linecap="round" stroke-linejoin="round" stroke-miterlimit="1.5" d="
				M2107.54,296.452l33.211-0.806"/>
		</g>
		<g transform="matrix(2,0,0,2,-2320.08,-385.449)">
			<ellipse fill="#DFDFD9" cx="2516.765" cy="669.493" rx="24.949" ry="24.294"/>
		</g>
		<g transform="matrix(2,0,0,2,-2478.1,-383.172)">
			<ellipse fill="#DFDFD9" cx="2434.594" cy="670.677" rx="24.949" ry="24.294"/>
		</g>
	</g>
</g>
</svg>
