<?xml version="1.0" encoding="utf-8"?>
<!-- Generator: Adobe Illustrator 17.0.0, SVG Export Plug-In . SVG Version: 6.00 Build 0)  -->
<!DOCTYPE svg PUBLIC "-//W3C//DTD SVG 1.1//EN" "http://www.w3.org/Graphics/SVG/1.1/DTD/svg11.dtd">
<svg version="1.1" id="Слой_1" xmlns:serif="http://www.serif.com/"
	 xmlns="http://www.w3.org/2000/svg" xmlns:xlink="http://www.w3.org/1999/xlink" x="0px" y="0px" width="486.113px"
	 height="488.286px" viewBox="56.149 151.857 486.113 488.286" enable-background="new 56.149 151.857 486.113 488.286"
	 xml:space="preserve">
<g transform="matrix(1,0,0,1,-3250,0)">
	<g id="Artboard6" transform="matrix(0.5,0,0,0.5,1625,0)">
		<rect x="3250" y="180" fill="none" width="1224" height="1224"/>
		<g transform="matrix(2.39104,0,0,2.39638,2413.55,-241.239)">
			<ellipse fill="#6166AB" cx="600.099" cy="431.167" rx="203.306" ry="203.76"/>
		</g>
		<g transform="matrix(1.485,0,0,2.00162,-1593.01,-614.407)">
			<path fill="#93DA84" d="M3544.568,696.393c0.959,9.702-1.652,19.417-7.589,28.093c-18.197,26.302-61.404,71.288-110.548-7.275
				c-1.204-1.93-1.774-4.047-1.652-6.173c1.448-23.925,12.628-175.393,61.689-173.714
				C3486.469,537.324,3528.514,530.896,3544.568,696.393z"/>
		</g>
		<g transform="matrix(1.485,0,0,2.00162,-1501.74,-629.959)">
			<path fill="#95CC89" d="M3357.997,698.38c-0.429-5.328,10.628-156.044,63.158-152.176c0,0-80.397,155.089,6.834,222.646
				C3427.989,768.85,3363.933,771.673,3357.997,698.38z"/>
		</g>
		<g transform="matrix(0.779446,0,0,0.779446,859.075,-5.62585)">
			<path fill="#93DA84" d="M3748.058,1138.632c2.611,20.898-4.713,41.816-19.789,56.51c-21.807,21.196-57.038,37.397-95.145-17.448
				c-4.508-6.428-6.691-14.209-6.161-22.042c2.897-39.229,15.973-167.139,61.077-165.595
				C3688.041,990.057,3730.35,990.495,3748.058,1138.632z"/>
		</g>
		<g transform="matrix(0.817135,0,0,0.77877,783.53,-11.3334)">
			<path fill="#95CC89" d="M3546.641,1151.765c-0.429-5.328,10.628-156.044,63.158-152.176c0,0-80.397,155.089,6.833,222.646
				C3616.633,1222.235,3552.577,1225.058,3546.641,1151.765z"/>
		</g>
		<g transform="matrix(1.485,0,0,1.77032,-1594.61,-511.888)">
			<path fill="#D5A568" d="M3477.413,851.45l0.857-76.341l-18.462-19.317c0,0-8.364-17.334,11.649-11.002l6.956,6.24l0.367-39.137
				c0,0,6.324-14.937,18.748,0.379l-0.102,19.686c0,0,18.278-2.944,10.077,11.069l-11.73,14.16v94.954L3477.413,851.45z"/>
		</g>
		<g transform="matrix(1.56119,0,0,1.78381,-1755.07,-520.71)">
			<path fill="#D5A568" d="M3509.643,798.381v50.916h14.565V797.74C3524.208,797.74,3516.232,784.66,3509.643,798.381z"/>
		</g>
		<g transform="matrix(1.56119,0,0,1.59695,-1856.97,-426.612)">
			<path fill="#7ECBC8" d="M3654.247,886.352l-1.061-121.123l103.734-64.715l101.408,64.913l-0.571,122.453L3654.247,886.352z"/>
		</g>
		<g transform="matrix(1.56119,0,0,1.56119,-1855.25,-407.716)">
			<path fill="#FB787F" d="M3757.108,684.365l118.075,79.338c0,0,3.693,14.555-9.037,13.062l-109.834-71.137l-113.036,70.943
				c0,0-17.544,1.297-8.099-14.753L3757.108,684.365z"/>
		</g>
		<g transform="matrix(1.56119,0,0,1.56119,-1847.81,-320.879)">
			<path fill="#FFD8DA" d="M3717.041,730.399c0-4.535-3.693-8.217-8.221-8.217h-16.442c-4.529,0-8.221,3.682-8.221,8.217v38.303
				c0,4.535,3.693,8.219,8.221,8.219h16.442c4.529,0,8.221-3.684,8.221-8.219V730.399z"/>
		</g>
		<g transform="matrix(1.56119,0,0,0.683996,-1847.81,31.9954)">
			<path fill="#FB787F" d="M3717.041,1146.133c0-7.554-2.693-13.684-5.998-13.684h-20.89c-3.305,0-5.998,6.13-5.998,13.684v27.369
				c0,7.554,2.693,13.686,5.998,13.686h20.89c3.304,0,5.998-6.132,5.998-13.686V1146.133z"/>
		</g>
		<g transform="matrix(1.56119,0,0,1.56119,-1809.56,-320.689)">
			<path fill="#FFD8DA" d="M3742.521,730.525c0-4.535-3.693-8.217-8.221-8.217h-16.443c-4.529,0-8.221,3.682-8.221,8.217v38.303
				c0,4.535,3.692,8.219,8.221,8.219h16.443c4.529,0,8.221-3.684,8.221-8.219V730.525z"/>
		</g>
		<g transform="matrix(1.56119,0,0,1.56119,-1772.97,-320.602)">
			<path fill="#FFD8DA" d="M3766.896,730.583c0-4.535-3.692-8.217-8.221-8.217h-16.443c-4.529,0-8.221,3.682-8.221,8.217v38.303
				c0,4.535,3.693,8.219,8.221,8.219h16.443c4.529,0,8.221-3.684,8.221-8.219V730.583z"/>
		</g>
		<g transform="matrix(1.56119,0,0,0.683996,-1809.75,32.1509)">
			<path fill="#FB787F" d="M3742.395,1146.37c0-7.554-2.693-13.684-5.998-13.684h-20.89c-3.305,0-5.998,6.13-5.998,13.684v27.369
				c0,7.554,2.693,13.686,5.998,13.686h20.89c3.304,0,5.998-6.132,5.998-13.686V1146.37z"/>
		</g>
		<g transform="matrix(1.55746,0,0,0.683996,-1759.87,32.2454)">
			<path fill="#FB787F" d="M3767.63,1146.513c0-7.554-2.713-13.684-6.018-13.684h-20.849c-3.325,0-6.018,6.13-6.018,13.684v27.369
				c0,7.554,2.693,13.686,6.018,13.686h20.849c3.304,0,6.018-6.132,6.018-13.686V1146.513z"/>
		</g>
		<g transform="matrix(2.26869,0,0,2.26869,-4736.76,-172.082)">
			<path fill="#93DA84" d="M3607.214,511.35h368.2c0,0-100.001,115.872-193.473,55.125
				C3734.673,535.754,3675.248,562.698,3607.214,511.35z"/>
		</g>
	</g>
</g>
</svg>
