<?xml version="1.0" encoding="utf-8"?>
<!-- Generator: Adobe Illustrator 17.0.0, SVG Export Plug-In . SVG Version: 6.00 Build 0)  -->
<!DOCTYPE svg PUBLIC "-//W3C//DTD SVG 1.1//EN" "http://www.w3.org/Graphics/SVG/1.1/DTD/svg11.dtd">
<svg version="1.1" id="Слой_1" xmlns:serif="http://www.serif.com/"
	 xmlns="http://www.w3.org/2000/svg" xmlns:xlink="http://www.w3.org/1999/xlink" x="0px" y="0px" width="575.783px"
	 height="578.387px" viewBox="15.609 106.807 575.783 578.387" enable-background="new 15.609 106.807 575.783 578.387"
	 xml:space="preserve">
<g id="Artboard1" transform="matrix(0.5,0,0,0.5,0,0)">
	<rect x="0" y="180" fill="none" width="1224" height="1224"/>
	<g id="MONEY-NO-BG" transform="matrix(2.60586,0,0,2.60593,-935.483,-271.785)" serif:id="MONEY NO BG">
		<g transform="matrix(0.998612,0,0,1.00084,1.32345,-6.62959)">
			
				<linearGradient id="SVGID_1_" gradientUnits="userSpaceOnUse" x1="591.4705" y1="34.3881" x2="592.4705" y2="34.3881" gradientTransform="matrix(287.8904 0 0 289.192 -169687.2969 -9530.252)">
				<stop  offset="0" style="stop-color:#6166AB"/>
				<stop  offset="0.66" style="stop-color:#5F63A7"/>
				<stop  offset="0.84" style="stop-color:#585C9D"/>
				<stop  offset="1" style="stop-color:#505491"/>
			</linearGradient>
			<ellipse fill="url(#SVGID_1_)" cx="591.426" cy="414.499" rx="221.264" ry="221.764"/>
		</g>
		<g transform="matrix(1.21834,0,0,1.28506,-135.676,-332.156)">
			
				<path fill="#7ECBC8" stroke="#7ECBC8" stroke-width="2.15" stroke-linecap="round" stroke-linejoin="round" stroke-miterlimit="1.5" d="
				M443.091,551.605c0,0,152.749-50.955,151.872-50.955c-0.078,0,143.5,52.328,143.5,52.328l-136.19,55.833L443.091,551.605z"/>
		</g>
		<g transform="matrix(1,0,0,0.777328,4.70898,42.3387)">
			
				<path fill="none" stroke="#7ECBC8" stroke-width="3" stroke-linecap="round" stroke-linejoin="round" stroke-miterlimit="1.5" d="
				M760.212,433.446v79.209"/>
		</g>
		<g transform="matrix(1.07134,0,0,1.04473,142.641,-7.39882)">
			
				<path fill="#7ECBC8" stroke="#7ECBC8" stroke-width="2.54" stroke-linecap="round" stroke-linejoin="round" stroke-miterlimit="1.5" d="
				M564.121,414.014l5.79-8.811l21.222-0.212l6.224,8.625l0.851,42.569l-33.519,0.408
				C564.688,456.592,565.229,412.908,564.121,414.014z"/>
		</g>
		<g transform="matrix(1.20918,0,0,1.20918,-117.53,-51.2679)">
			<text transform="matrix(0.6347 0 0 0.6347 717.54 425.1504)" fill="#6166AB" font-family="'Arial-BoldMT'" font-size="75.2604">$</text>
		</g>
		<g transform="matrix(1.01974,0,0,1.15622,-30.1068,-278.865)">
			<g>
				<g>
					<defs>
						<path id="SVGID_2_" d="M513.423,595.879c-2.923,1.404,0,41.524,0,41.524s1.012,0.075,2.783,0.21
							c12.709,0.957,64.558,4.886,63.273,5.127c-1.467,0.273,34.194,40.4,73.65-3.652l60.498-4.631c0,0,0.877-41.251-0.294-39.982
							C712.159,595.742,516.348,594.476,513.423,595.879z"/>
					</defs>
					<clipPath id="SVGID_3_">
						<use xlink:href="#SVGID_2_"  overflow="visible"/>
					</clipPath>
					<g clip-path="url(#SVGID_3_)">
						<g transform="matrix(0.752642,-0,-0,0.663787,381.566,331.39)">
							<g transform="matrix(0.994943,0,0,0.987029,0,0)">
								
									<image overflow="visible" enable-background="new    " width="134" height="51" id="_Image3" xlink:href="76DB59D6.png"  transform="matrix(2.0297 0 0 2.0135 171.5494 394.1177)">
								</image>
							</g>
						</g>
					</g>
				</g>
			</g>
		</g>
		<g transform="matrix(1.2142,0,0,1.35115,-133.419,-355.805)">
			<path fill="#7ECBC8" fill-opacity="0.5529" d="M443.584,548.048c0,0,152.749-50.955,151.872-50.955
				c-0.078,0,143.499,52.328,143.499,52.328l-136.19,55.833L443.584,548.048z"/>
			<path fill="#7ECBC8" fill-opacity="0.6" d="M595.943,494.818h0.002l0.508,0.139l0.006,0.002l0.086,0.033l0.292,0.108l1.189,0.434
				l4.543,1.661l7.071,2.581l9.174,3.348l22.981,8.38l26.351,9.606l26.355,9.606l22.991,8.38l22.434,8.176l0.479,0.231l0.416,0.316
				l0.332,0.39l0.235,0.441l0.126,0.477l0.01,0.49l-0.102,0.479l-0.214,0.451l-0.314,0.4l-0.4,0.333l-0.469,0.249l-136.19,55.835
				l-0.492,0.149l-0.516,0.059l-0.52-0.037l-0.5-0.128l-159.179-57.206l-0.457-0.214l-0.402-0.292l-0.328-0.359l-0.243-0.41
				l-0.147-0.445l-0.045-0.461l0.059-0.461l0.159-0.441l0.253-0.404l0.339-0.351l0.408-0.284l0.463-0.204l6.563-2.189l7.528-2.513
				l9.763-3.26l11.546-3.856l12.883-4.304l13.772-4.602l14.209-4.751l7.128-2.387l7.071-2.366l6.954-2.328l6.785-2.275l6.557-2.199
				l6.273-2.105l5.934-1.993l5.541-1.863l5.086-1.712l4.58-1.546l2.083-0.704l1.934-0.655l1.777-0.602l1.616-0.551l1.448-0.492
				l1.269-0.435l1.085-0.373l0.893-0.31l0.369-0.131l0.318-0.112l0.265-0.094l0.206-0.076l0.141-0.051l0.043-0.016l0.055-0.031
				l0.51-0.159l0.534-0.059L595.943,494.818z M595.458,497.095v0.002l-0.002,0.002l-0.008,0.004l-0.024,0.012l-0.039,0.016
				l-0.116,0.045l-0.171,0.063l-0.224,0.082l-0.275,0.098l-0.326,0.114l-0.375,0.133l-0.902,0.312l-1.089,0.375l-1.273,0.437
				l-1.45,0.494l-1.618,0.549l-1.779,0.604l-1.936,0.655l-2.083,0.706l-4.582,1.544l-5.088,1.714l-5.541,1.863l-5.934,1.995
				l-6.275,2.105l-6.559,2.199l-6.783,2.273l-6.956,2.33l-7.071,2.366l-7.128,2.385l-14.211,4.753l-13.77,4.602l-12.883,4.304
				l-11.548,3.856l-9.761,3.26l-7.53,2.513l-6.563,2.189l159.181,57.206l136.19-55.833l-22.434-8.176l-22.991-8.38l-26.355-9.606
				l-26.351-9.608l-22.98-8.38l-9.176-3.346l-7.071-2.581l-4.543-1.661l-1.195-0.439l-0.304-0.112L595.458,497.095h0.002
				l-0.004-0.002L595.458,497.095z M592.885,496.958l0.002,0.002v-0.006L592.885,496.958z M594.279,495.038l-0.124,0.057
				l-0.263,0.151l-0.153,0.124l-0.012,0.02l0.173-0.145l0.4-0.218L594.279,495.038z"/>
		</g>
		<g transform="matrix(0.966492,0,0,0.960329,-10.0313,-197.296)">
			
				<path fill="#55BBB7" stroke="#60BAB6" stroke-width="2.64" stroke-linecap="round" stroke-linejoin="round" stroke-miterlimit="1.5" d="
				M468.259,596.386c0,0,152.749-50.955,151.871-50.955c-0.078,0,143.499,52.328,143.499,52.328l-136.19,55.833L468.259,596.386z"/>
		</g>
	</g>
</g>
</svg>
