<?xml version="1.0" encoding="utf-8"?>
<!-- Generator: Adobe Illustrator 17.0.0, SVG Export Plug-In . SVG Version: 6.00 Build 0)  -->
<!DOCTYPE svg PUBLIC "-//W3C//DTD SVG 1.1//EN" "http://www.w3.org/Graphics/SVG/1.1/DTD/svg11.dtd">
<svg version="1.1" id="Слой_1" xmlns:serif="http://www.serif.com/"
	 xmlns="http://www.w3.org/2000/svg" xmlns:xlink="http://www.w3.org/1999/xlink" x="0px" y="0px" width="575.813px"
	 height="578.236px" viewBox="18.095 106.954 575.813 578.236" enable-background="new 18.095 106.954 575.813 578.236"
	 xml:space="preserve">
<g transform="matrix(1,0,0,1,-1300,0)">
	<g id="Artboard3" transform="matrix(0.5,0,0,0.5,650,0)">
		<rect x="1300" y="180" fill="none" width="1224" height="1224"/>
		<g transform="matrix(2.60231,0,0,2.60811,370.386,-289.061)">
			<ellipse fill="#6166AB" cx="592.403" cy="414.499" rx="221.27" ry="221.763"/>
		</g>
		<g transform="matrix(1.2829,0,0,1.45901,-413.905,-162.504)">
			<path fill="#FFB6BA" d="M1734.534,538.038l-13.158-61.008l33.068-0.324l15.076,21.173l25.276,38.325L1734.534,538.038z"/>
		</g>
		<g transform="matrix(1.2829,0,0,1.45901,-410.332,-161.849)">
			<path fill="#FCD4D6" fill-opacity="0.9608" d="M1629.779,535.625l61.73-0.333l9.833-58.566l-31.151-0.006L1629.779,535.625z"/>
		</g>
		<g transform="matrix(1.2829,0,0,1.45901,-410.352,-161.71)">
			<path fill="#FFA9AE" d="M1682.966,535.053c10.139,33.354,14.77,48.987,22.032,72.91l-20.91,0.029l-54.264-72.502
				L1682.966,535.053z"/>
		</g>
		<g transform="matrix(1.2829,0,0,1.45901,-410.34,-161.799)">
			<path fill="#FF8289" d="M1682.792,535.022l57.65,0.555l-18.645,72.487l-19.115-0.071L1682.792,535.022z"/>
		</g>
		<g transform="matrix(1.2829,0,0,1.45901,-410.492,-161.308)">
			<path fill="#FB787F" d="M1740.238,535.227l51.877,0.135l-53.02,72.412l-17.421-0.035L1740.238,535.227z"/>
		</g>
		<g transform="matrix(1.36613,0,0,1.54455,-542.943,-182.656)">
			<path fill="#FFC3C6" d="M1730.944,519.572l-12.934-55.967l-32.252,0.192l-8.058,55.515L1730.944,519.572z"/>
		</g>
		<g transform="matrix(2.1478,0,0,2.1478,-1767.22,-701.756)">
			<path fill="#7ECBC8" d="M1658.442,655.867c47.716,0,86.455,38.797,86.455,86.582c0,47.787-38.74,86.584-86.455,86.584
				c-47.736,0-86.476-38.797-86.476-86.584C1571.966,694.663,1610.706,655.867,1658.442,655.867z M1657.401,676.281
				c36.761,0,66.606,29.888,66.606,66.704c0,36.814-29.845,66.702-66.606,66.702c-36.781,0-66.626-29.888-66.626-66.702
				C1590.775,706.169,1620.62,676.281,1657.401,676.281z"/>
		</g>
		<g transform="matrix(2.1478,0,0,2.1478,-1650.47,-704.251)">
			<path fill="#7ECBC8" d="M1714.974,654.658c47.716,0,86.455,38.797,86.455,86.582c0,47.787-38.74,86.584-86.455,86.584
				c-47.736,0-86.476-38.797-86.476-86.584C1628.498,693.455,1667.238,654.658,1714.974,654.658z M1713.934,675.073
				c36.761,0,66.606,29.888,66.606,66.704c0,36.814-29.845,66.702-66.606,66.702c-36.781,0-66.626-29.888-66.626-66.702
				C1647.307,704.961,1677.152,675.073,1713.934,675.073z"/>
		</g>
		<g transform="matrix(1.70616,0,0,1.68524,-1088.44,-528.385)">
			
				<path fill="#7ECBC8" stroke="#60BAB6" stroke-width="5.6" stroke-linecap="round" stroke-linejoin="round" stroke-miterlimit="1.5" d="
				M1621.126,629.92l-15.606-19.319"/>
		</g>
		<g transform="matrix(0.394368,1.65996,-1.6396,0.389532,1676.15,-2496.79)">
			
				<path fill="#7ECBC8" stroke="#60BAB6" stroke-width="5.6" stroke-linecap="round" stroke-linejoin="round" stroke-miterlimit="1.5" d="
				M1751.938,291.88l-15.606-19.319"/>
		</g>
		<g transform="matrix(1.67859,1.15071,-1.25782,1.83483,-472.22,-2342.19)">
			
				<path fill="#7ECBC8" stroke="#60BAB6" stroke-width="4.22" stroke-linecap="round" stroke-linejoin="round" stroke-miterlimit="1.5" d="
				M1703.29,481.242l-15.606-19.319"/>
		</g>
	</g>
</g>
</svg>
