<?xml version="1.0" encoding="utf-8"?>
<!-- Generator: Adobe Illustrator 17.0.0, SVG Export Plug-In . SVG Version: 6.00 Build 0)  -->
<!DOCTYPE svg PUBLIC "-//W3C//DTD SVG 1.1//EN" "http://www.w3.org/Graphics/SVG/1.1/DTD/svg11.dtd">
<svg version="1.1" id="Слой_1" xmlns:serif="http://www.serif.com/"
	 xmlns="http://www.w3.org/2000/svg" xmlns:xlink="http://www.w3.org/1999/xlink" x="0px" y="0px" width="285.127px"
	 height="202.754px" viewBox="159.872 304.5 285.127 202.754" enable-background="new 159.872 304.5 285.127 202.754"
	 xml:space="preserve">
<g transform="matrix(0.944244,0,0,0.880334,249.306,39.7379)">
	<path fill="#525252" d="M-15.964,408.318c0-4.54-3.437-8.227-7.67-8.227h-34.586c-4.233,0-7.67,3.686-7.67,8.227v30.492
		c0,4.54,3.436,8.227,7.67,8.227h34.586c4.233,0,7.67-3.686,7.67-8.227V408.318z"/>
</g>
<g transform="matrix(1.28459,0,0,0.859623,213.394,59.6492)">
	<g transform="matrix(1.09041,0,0,1.23128,-3.30106,-40.751)">
		<path fill="#6E95E0" d="M-35.183,412.6l8.867-6.443l60.851-0.086l-0.206,7.078L-35.183,412.6z"/>
	</g>
	<g transform="matrix(1.10567,0,0,1.11433,-5.30801,-10.7337)">
		<path fill="#7DAAFF" d="M-32.629,428.443c0,0,69.045,0.523,69.045,0c0-0.523,0,45.189,0,45.189h-68.718L-32.629,428.443z"/>
	</g>
	<g transform="matrix(1.0156,0,0,0.8356,245.495,81.1291)">
		<path fill="#92DB82" d="M-133.451,473.504c0,0,69.045,0.523,69.045,0c0-0.523,0,45.189,0,45.189h-68.718L-133.451,473.504z"/>
	</g>
	<g transform="matrix(1.00612,0,0,1.13242,18.8044,-15.7859)">
		<path fill="#85A67E" d="M160.508,435.237l-7.13-7.13H90.636v7.22L160.508,435.237z"/>
	</g>
	<g transform="matrix(1.10174,0,0,1.8352,118.212,-252.911)">
		<path fill="#FF9097" d="M-76.353,376.028c0,0,15.76-0.1,32.169-0.067c18.092,0.036,37.019,0.517,37.019,0.242
			c0-0.523-0.12,45.338-0.12,45.338h-68.718L-76.353,376.028z"/>
	</g>
	<g transform="matrix(1.08359,0,0,1.16812,-2.35618,-54.6254)">
		<path fill="#EC6D74" d="M37.263,412.728l-3.646,8.359c23.476,0.267,47.245,0.646,70.447,0.414l-4.406-8.331"/>
	</g>
</g>
<g transform="matrix(1,0,0,1,2.02617,2.00076)">
	<g transform="matrix(0.71376,0,0,0.71587,345.198,92.7959)">
		<text transform="matrix(1.3969 0 0 1.3969 -69.8126 549.9257)" fill="#FFFFFF" font-family="'ArialMT'" font-size="43.4599">1</text>
	</g>
	<g transform="matrix(0.601268,0,0,0.603045,212.708,141.125)">
		<text transform="matrix(1.6583 0 0 1.6583 -19.63 580.1638)" fill="#FFFFFF" font-family="'ArialMT'" font-size="30.6002">2</text>
	</g>
	<g transform="matrix(0.444328,0,0,0.445641,559.988,197.773)">
		<text transform="matrix(2.244 0 0 2.244 -371.8281 657.3103)" fill="#FFFFFF" font-family="'ArialMT'" font-size="22.6131">3</text>
	</g>
</g>
<g transform="matrix(0.993492,0,0,0.971883,0,0)">
	
		<image overflow="visible" enable-background="new    " width="85" height="20" id="_Image1" xlink:href="83EE5EED.png"  transform="matrix(0.608 0 0 0.5948 184.5472 451.7318)">
	</image>
</g>
<g transform="matrix(0.99568,0,0,0.992357,0,0)">
	
		<image overflow="visible" enable-background="new    " width="133" height="34" id="_Image2" xlink:href="83EE5EEF.png"  transform="matrix(0.6094 0 0 0.6073 264.0883 421.1946)">
	</image>
</g>
<g transform="matrix(0.988955,0,0,0.960773,0,0)">
	
		<image overflow="visible" enable-background="new    " width="84" height="20" id="_Image3" xlink:href="83EE5EEA.png"  transform="matrix(0.6052 0 0 0.588 373.8044 460.78)">
	</image>
</g>
<g transform="matrix(0.211708,0,0,0.206826,661.736,260.071)">
	<g transform="matrix(1,0,0,1,-300,-300)">
		<rect id="Artboard1" x="-1096.372" y="941.008" fill="none" width="367.2" height="367.2"/>
		<g>
			<g transform="matrix(0.948485,-0.316821,0.316821,0.948485,-2.92079,58.6758)">
				<path fill="#6166AB" fill-opacity="0.8471" d="M-1252.971,772.164c-5.286-0.021-9.562-4.312-9.562-9.599
					c0-23.316,0-82.842,0-105.544c0-4.96,4.021-8.982,8.982-8.982c33.905,0,153.711,0,183.79,0c1.827,0,3.58,0.726,4.872,2.018
					c1.292,1.292,2.018,3.045,2.018,4.872c0,20.731,0,82.626,0,107.472c0,2.78-1.107,5.444-3.076,7.406
					c-1.969,1.961-4.638,3.058-7.417,3.047C-1108.18,772.721-1219.561,772.292-1252.971,772.164z"/>
			</g>
			<g id="_Image3_" transform="matrix(0.996901,-2.74593e-07,5.60454e-07,0.99895,304.208,174.35)" serif:id="_Image3">
				<g>
					
						<image overflow="visible" enable-background="new    " width="188" height="141" id="_Image4" xlink:href="83EE5EEB.png"  transform="matrix(0.612 0 0 0.612 -1218.1827 874.2786)">
					</image>
				</g>
			</g>
			<g transform="matrix(1.04784,0,0,1.04784,-45.3068,54.2751)">
				<path fill="#6166AB" d="M-953.211,1126.166c-5.045-0.02-9.126-4.115-9.126-9.161c0-23.14,0-83.863,0-106.39
					c0-2.274,0.903-4.453,2.51-6.061c1.608-1.607,3.788-2.51,6.061-2.51c33.454,0,154.847,0,184.515,0
					c3.632,0,6.576,2.944,6.576,6.576c0,20.544,0,83.621,0,108.266c0,2.652-1.056,5.196-2.936,7.067
					c-1.879,1.872-4.426,2.919-7.078,2.908C-807.099,1126.728-920.194,1126.293-953.211,1126.166z"/>
				<g id="Layer1" transform="matrix(1.06531,0,0,1,-29.2123,67.9872)">
					<g>
						<defs>
							<path id="SVGID_1_" d="M-867.352,1058.179c-4.736-0.02-8.566-4.115-8.566-9.161c0-23.14,0-83.863,0-106.39
								c0-2.274,0.848-4.454,2.357-6.061c1.509-1.607,3.555-2.51,5.69-2.51c31.403,0,145.354,0,173.203,0
								c3.409,0,6.173,2.944,6.173,6.576c0,20.544,0,83.621,0,108.266c0,2.652-0.992,5.196-2.756,7.067
								c-1.764,1.872-4.155,2.919-6.644,2.908C-730.197,1058.741-836.359,1058.306-867.352,1058.179z"/>
						</defs>
						<clipPath id="SVGID_2_">
							<use xlink:href="#SVGID_1_"  overflow="visible"/>
						</clipPath>
						<g clip-path="url(#SVGID_2_)">
							<g transform="matrix(1.06132,0,0,1.22148,-10.5509,-24.6073)">
								<path fill="#7ECBC8" d="M-786.012,809.947c0,0-8.866-22.416-5.195-33.099l17.629,0.2c0,0,1.403,8.87,0.736,12.913
									c-0.899,5.45-2.946,20.035-2.946,20.035L-786.012,809.947z"/>
							</g>
							<path fill="#7ECBC8" d="M-831.921,1063.667l-19.299-0.086c0,0-0.03-86.893,8.362-90.233c7.463-2.97,8.138-4.502,9.394,0.428
								C-831.191,982.688-831.921,1063.667-831.921,1063.667"/>
							
								<rect x="-885.104" y="957.52" transform="matrix(-1 0.006 -0.006 -1 -1541.207 1938.4901)" fill="#7ECBC8" width="223.161" height="18.808"/>
						</g>
					</g>
				</g>
			</g>
			<g id="Ribbon" transform="matrix(1.14768,0,0,1.10653,-94.7859,117.672)">
				<g transform="matrix(1.02236,-0.0447229,0.042624,1.0482,-8.69325,2.05624)">
					<path fill="#FE525B" d="M-798.396,842.697c0,0,26.367,32.692,56.493,27.531c0,0-41.937,30.171-64.371-15.462
						c-8.944-18.193-3.184-12.947-0.701-13.487C-803.229,840.466-800.268,838.917-798.396,842.697"/>
				</g>
				<g transform="matrix(0.899158,0,0,1,29.1617,1.65654)">
					<path fill="#FE525B" d="M-923.902,918.297c0,0-6.371-22.844,25.891-37.06c6.395-2.818,11.578,9.82,12.446,12.211
						c1.646,4.535-6.094,7.367-13.876,15.46C-907.075,916.846-919.212,923.338-923.902,918.297z"/>
				</g>
				<g transform="matrix(0.939454,0,0,0.958544,19.0193,5.47107)">
					
						<path fill="none" stroke="#FB787F" stroke-width="0.56" stroke-linecap="round" stroke-linejoin="round" stroke-miterlimit="1.5" d="
						M-878.059,952.313c0,0,1.703-9.521,8.815-19.989c4.151-6.109,10.804-13.749,22.694-18.987
						c6.395-2.818,8.889,11.143,9.756,13.534c1.646,4.535-6.094,7.367-13.876,15.46
						C-858.304,950.269-873.369,957.355-878.059,952.313z"/>
					<path fill="#FB787F" d="M-878.059,952.313c0,0,1.703-9.521,8.815-19.989c4.151-6.109,10.804-13.749,22.694-18.987
						c6.395-2.818,8.889,11.143,9.756,13.534c1.646,4.535-6.094,7.367-13.876,15.46
						C-858.304,950.269-873.369,957.355-878.059,952.313z"/>
				</g>
				<g transform="matrix(1.36454,0,0,1.26059,-51.2832,-64.3916)">
					
						<path fill="none" stroke="#FB787F" stroke-width="0.4" stroke-linecap="round" stroke-linejoin="round" stroke-miterlimit="1.5" d="
						M-575.923,812.01c0,0,0.931,3.949,6.54-1.579c1.372-1.352,4.042-6.707,6.17-8.797c10.597-10.408,6.367-8.952,6.367-8.952
						S-575.464,798.473-575.923,812.01z"/>
					<path fill="#FE525B" d="M-575.923,812.01c0,0,0.931,3.949,6.54-1.579c1.372-1.352,4.042-6.707,6.17-8.797
						c10.597-10.408,6.367-8.952,6.367-8.952S-575.464,798.473-575.923,812.01z"/>
				</g>
				<g>
					
						<path fill="none" stroke="#FB787F" stroke-width="0.53" stroke-linecap="round" stroke-linejoin="round" stroke-miterlimit="1.5" d="
						M-812.836,923.436c0,0-2.191,0.099-2.953,0.311c-5.013,1.401-24.567,7.742-33.017,23.404c0,0,7.853,14.34,12.785,12.063
						c4.931-2.277,16.955-23.39,25.768-22.921l0.946-3.396C-809.307,932.898-811.148,932.276-812.836,923.436z"/>
					<path fill="#FB787F" d="M-812.836,923.436c0,0-2.191,0.099-2.953,0.311c-5.013,1.401-24.567,7.742-33.017,23.404
						c0,0,7.853,14.34,12.785,12.063c4.931-2.277,16.955-23.39,25.768-22.921l0.946-3.396
						C-809.307,932.898-811.148,932.276-812.836,923.436z"/>
				</g>
				<g transform="matrix(1.14683,0.110667,-0.0907778,1.01199,-12.3582,-27.0783)">
					
						<path fill="none" stroke="#FB787F" stroke-width="0.49" stroke-linecap="round" stroke-linejoin="round" stroke-miterlimit="1.5" d="
						M-616.487,1013.57c0,0,6.073,54.914,23.982,76.938c0,0-2.064-16.135,6.054-15.536c0,0,7.307,0.111,5.512-6.613
						c0,0-20.742-56.509-28.696-57.318C-617.588,1010.231-616.09,1012.492-616.487,1013.57z"/>
					<path fill="#FB787F" d="M-616.487,1013.57c0,0,6.073,54.914,23.982,76.938c0,0-2.064-16.135,6.054-15.536
						c0,0,7.307,0.111,5.512-6.613c0,0-20.742-56.509-28.696-57.318C-617.588,1010.231-616.09,1012.492-616.487,1013.57z"/>
				</g>
				<g transform="matrix(1.02236,-0.0447229,0.042624,1.0482,-11.3264,4.19027)">
					<path fill="#FB787F" d="M-797.366,841.951c0,0,26.367,32.692,56.493,27.531c0,0-41.937,30.171-64.371-15.462
						c-8.944-18.193-3.184-12.947-0.701-13.487C-802.199,839.72-799.237,838.171-797.366,841.951"/>
				</g>
				<g transform="matrix(1.81669,0,0,1.81135,-145.783,-162.067)">
					<path fill="#FB787F" d="M-364.015,593.022c3.768,0,9.397,2.777,9.397,6.629c0,3.852-5.932,1.903-6.976,5.523
						c-1.57,5.442-7.799-2.766-6.827-6.979C-367.744,595.266-367.783,593.022-364.015,593.022z"/>
				</g>
			</g>
			<g transform="matrix(2.17121,0,0,2.17121,-46.5534,-254.309)">
				<path fill="#FFFFFF" d="M-416.647,662.263h2.227v1.596c1.023,0.057,2.058,0.367,3.106,0.928v3.774
					c-1.097-1.072-2.141-1.608-3.13-1.608c-0.47,0-0.905,0.149-1.305,0.446s-0.6,0.705-0.6,1.225c0,0.388,0.141,0.722,0.421,1.002
					c0.272,0.289,0.899,0.652,1.881,1.089c0.883,0.388,1.571,0.761,2.066,1.12c0.495,0.359,0.909,0.851,1.244,1.479
					c0.334,0.627,0.501,1.319,0.501,2.078c0,1.171-0.346,2.237-1.039,3.199c-0.693,0.961-1.741,1.631-3.143,2.01v1.831h-2.227
					v-1.621c-1.048-0.025-2.26-0.367-3.638-1.027v-3.886c1.278,1.213,2.516,1.819,3.712,1.819c0.668,0,1.225-0.2,1.671-0.6
					c0.446-0.4,0.668-0.906,0.668-1.516c0-0.52-0.182-0.944-0.545-1.274c-0.363-0.33-0.998-0.689-1.905-1.077
					c-1.18-0.512-2.075-1.13-2.685-1.856c-0.619-0.717-0.928-1.637-0.928-2.759c0-1.114,0.305-2.054,0.916-2.821
					c0.611-0.767,1.522-1.361,2.734-1.782V662.263z"/>
				<path fill="#FFFFFF" d="M-407.54,664.082h8.611v3.117h-4.701v3.007c0.643-0.528,1.291-0.792,1.942-0.792
					c0.891,0,1.751,0.429,2.58,1.287c0.829,0.858,1.244,2.128,1.244,3.811c0,1.864-0.544,3.39-1.633,4.578
					c-1.089,1.188-2.499,1.782-4.231,1.782c-1.138,0-2.409-0.305-3.811-0.916v-3.712c1.229,0.908,2.314,1.361,3.254,1.361
					c0.677,0,1.246-0.278,1.707-0.835c0.462-0.557,0.693-1.256,0.693-2.097c0-0.602-0.121-1.099-0.365-1.491
					c-0.244-0.392-0.554-0.588-0.934-0.588c-0.396,0-0.718,0.256-0.965,0.767h-3.391V664.082z"/>
				<path fill="#FFFFFF" d="M-390.143,663.809c1.79,0,3.223,0.744,4.299,2.233s1.615,3.673,1.615,6.551
					c0,2.525-0.536,4.535-1.609,6.032c-1.072,1.497-2.479,2.246-4.219,2.246c-1.27,0-2.379-0.4-3.328-1.2
					c-0.949-0.801-1.619-1.865-2.011-3.193c-0.392-1.328-0.588-2.751-0.588-4.269c0-2.54,0.545-4.576,1.633-6.106
					C-393.261,664.574-391.859,663.809-390.143,663.809z M-390.082,666.866c-0.652,0-1.141,0.443-1.466,1.33
					s-0.489,2.217-0.489,3.99c0,1.873,0.161,3.277,0.483,4.213c0.322,0.936,0.804,1.405,1.447,1.405c0.635,0,1.11-0.454,1.423-1.361
					c0.314-0.908,0.471-2.269,0.471-4.083c0-1.831-0.155-3.204-0.465-4.12C-388.987,667.324-389.455,666.866-390.082,666.866z"/>
				<path fill="#FFFFFF" d="M-377.214,663.809c1.79,0,3.223,0.744,4.299,2.233c1.077,1.489,1.615,3.673,1.615,6.551
					c0,2.525-0.536,4.535-1.608,6.032c-1.073,1.497-2.479,2.246-4.22,2.246c-1.27,0-2.379-0.4-3.328-1.2
					c-0.949-0.801-1.619-1.865-2.01-3.193c-0.392-1.328-0.588-2.751-0.588-4.269c0-2.54,0.545-4.576,1.633-6.106
					C-380.332,664.574-378.93,663.809-377.214,663.809z M-377.152,666.866c-0.652,0-1.14,0.443-1.466,1.33
					c-0.326,0.887-0.488,2.217-0.488,3.99c0,1.873,0.16,3.277,0.482,4.213c0.322,0.936,0.804,1.405,1.448,1.405
					c0.635,0,1.109-0.454,1.423-1.361c0.313-0.908,0.47-2.269,0.47-4.083c0-1.831-0.155-3.204-0.464-4.12
					C-376.057,667.324-376.525,666.866-377.152,666.866z"/>
			</g>
		</g>
	</g>
</g>
<g transform="matrix(0.323479,0,0,0.323479,349.642,220.731)">
	<g transform="matrix(1,0,0,1,-640.5,-400)">
		<g id="Artboard2" transform="matrix(1,0,0,1,-1329.42,0)">
			
				<rect x="1158.057" y="730.155" transform="matrix(-1 0.006 -0.006 -1 3106.9478 1939.6027)" fill="none" width="785.061" height="488.539"/>
			<g transform="matrix(0.740136,-0.167319,0.159949,0.707534,195.519,604.919)">
				
					<rect x="1537.081" y="995.007" transform="matrix(1 -0.0044 0.0044 1 -4.4913 7.0529)" fill="#93DA84" width="141.548" height="67.702"/>
			</g>
			<g transform="matrix(0.922726,0,0,0.955208,178.729,68.1509)">
				<path fill="#FBFBFB" d="M1565.588,898.691c0-10.067-8.464-18.239-18.88-18.239h-119.927c-10.416,0-18.88,8.173-18.88,18.239
					v105.951c0,10.067,8.464,18.239,18.88,18.239h119.927c10.416,0,18.88-8.173,18.88-18.239V898.691z"/>
			</g>
			<g transform="matrix(0.922726,0,0,0.276809,178.729,227.138)">
				<path fill="#FF9097" d="M1565.588,2504.489c0-23.583-5.747-42.729-12.822-42.729h-132.045c-7.075,0-12.821,19.146-12.821,42.729
					v99.702h157.688V2504.489z"/>
			</g>
			<g transform="matrix(0.922726,0,0,0.276809,178.729,227.138)">
				<path fill="#FF9097" d="M1565.588,2504.489c0-23.583-5.747-42.729-12.822-42.729h-132.045c-7.075,0-12.821,19.146-12.821,42.729
					v99.702h157.688V2504.489z"/>
			</g>
			<g>
				<g id="_Image1_" transform="matrix(0.974712,0,0,0.996796,1878.93,284.319)" serif:id="_Image1">
					<g>
						
							<image overflow="visible" enable-background="new    " width="14" height="28" id="_Image6" xlink:href="83EE5EF5.png"  transform="matrix(0.612 0 0 0.612 -394.0419 621.2997)">
						</image>
					</g>
				</g>
				<g transform="matrix(1.4699,0,0,1.12427,-507.264,27.6068)">
					<path fill="#F1F1F1" d="M1367.241,782.567c0-1.86-1.157-3.37-2.583-3.37c-1.42,0-2.577,1.51-2.577,3.37v7.765
						c0,1.86,1.157,3.37,2.577,3.37c1.426,0,2.583-1.51,2.583-3.37V782.567z"/>
				</g>
			</g>
			<g>
				<g id="_Image1_1" transform="matrix(0.974712,0,0,0.996796,1933.93,284.319)" serif:id="_Image1">
					<g>
						
							<image overflow="visible" enable-background="new    " width="14" height="28" id="_Image6_2_" xlink:href="83EE5EF7.png"  transform="matrix(0.612 0 0 0.612 -415.9355 621.2997)">
						</image>
					</g>
				</g>
				<g transform="matrix(1.4699,0,0,1.12427,-452.262,27.6068)">
					<path fill="#F1F1F1" d="M1352.723,782.567c0-1.86-1.157-3.37-2.583-3.37c-1.42,0-2.577,1.51-2.577,3.37v7.765
						c0,1.86,1.157,3.37,2.577,3.37c1.426,0,2.583-1.51,2.583-3.37V782.567z"/>
				</g>
			</g>
			<g>
				<g id="_Image1_2" transform="matrix(0.974712,0,0,0.996796,1990.69,284.319)" serif:id="_Image1">
					<g>
						
							<image overflow="visible" enable-background="new    " width="14" height="28" id="_Image6_3_" xlink:href="83EE5EFA.png"  transform="matrix(0.612 0 0 0.612 -438.5297 621.2997)">
						</image>
					</g>
				</g>
				<g transform="matrix(1.4699,0,0,1.12427,-395.5,27.6068)">
					<path fill="#F1F1F1" d="M1337.74,782.567c0-1.86-1.157-3.37-2.583-3.37c-1.42,0-2.576,1.51-2.576,3.37v7.765
						c0,1.86,1.157,3.37,2.576,3.37c1.426,0,2.583-1.51,2.583-3.37V782.567z"/>
				</g>
			</g>
			<g>
				<g id="_Image1_3" transform="matrix(0.974712,0,0,0.996796,2043.69,284.319)" serif:id="_Image1">
					<g>
						
							<image overflow="visible" enable-background="new    " width="14" height="28" id="_Image6_4_" xlink:href="83EE5EFB.png"  transform="matrix(0.612 0 0 0.612 -459.6272 621.2997)">
						</image>
					</g>
				</g>
				<g transform="matrix(1.4699,0,0,1.12427,-342.499,27.6068)">
					<path fill="#F1F1F1" d="M1323.749,782.567c0-1.86-1.157-3.37-2.583-3.37c-1.42,0-2.577,1.51-2.577,3.37v7.765
						c0,1.86,1.157,3.37,2.577,3.37c1.426,0,2.583-1.51,2.583-3.37V782.567z"/>
				</g>
			</g>
			<g transform="matrix(0.81973,0,0,0.794784,688.942,128.882)">
				
					<rect x="1088.263" y="1053.759" transform="matrix(-0.9915 0.1302 -0.1302 -0.9915 2327.7732 1970.6873)" fill="#EEEEEE" width="22.402" height="15.362"/>
			</g>
			<g transform="matrix(0.81973,0,0,0.794784,645.447,128.882)">
				
					<rect x="1108.856" y="1053.755" transform="matrix(-0.991 0.1342 -0.1342 -0.991 2372.4336 1962.9421)" fill="#EEEEEE" width="22.39" height="15.37"/>
			</g>
			<g transform="matrix(0.81973,0,0,0.794784,602.286,128.882)">
				
					<rect x="1129.292" y="1053.75" transform="matrix(-0.9904 0.1384 -0.1384 -0.9904 2416.8462 1954.8826)" fill="#EEEEEE" width="22.377" height="15.379"/>
			</g>
			<g transform="matrix(0.81973,0,0,0.794784,559.669,128.882)">
				
					<rect x="1149.47" y="1053.746" transform="matrix(-0.9898 0.1426 -0.1426 -0.9898 2460.8118 1946.5118)" fill="#EEEEEE" width="22.363" height="15.388"/>
			</g>
			<g transform="matrix(0.81973,0,0,0.794784,688.741,164.503)">
				
					<rect x="1088.384" y="1036.351" transform="matrix(-0.9891 0.147 -0.147 -0.9891 2340.6387 1915.1366)" fill="#EEEEEE" width="22.349" height="15.398"/>
			</g>
			<g transform="matrix(0.81973,0,0,0.794784,645.246,164.503)">
				
					<rect x="1108.979" y="1036.346" transform="matrix(-0.9885 0.1515 -0.1515 -0.9885 2385.5352 1906.349)" fill="#EEEEEE" width="22.333" height="15.409"/>
			</g>
			<g transform="matrix(0.81973,0,0,0.794784,602.085,164.503)">
				
					<rect x="1129.417" y="1036.34" transform="matrix(-0.9877 0.1561 -0.1561 -0.9877 2430.179 1897.2067)" fill="#EEEEEE" width="22.317" height="15.42"/>
			</g>
			<g transform="matrix(0.81973,0,0,0.794784,559.468,164.503)">
				
					<rect x="1149.597" y="1036.334" transform="matrix(-0.987 0.1609 -0.1609 -0.987 2474.3713 1887.7129)" fill="#EEEEEE" width="22.3" height="15.432"/>
			</g>
			<g transform="matrix(0.81973,0,0,0.794784,688.741,199.921)">
				
					<rect x="1088.418" y="1019.037" transform="matrix(-0.9862 0.1658 -0.1658 -0.9862 2354.1599 1856.965)" fill="#EEEEEE" width="22.281" height="15.445"/>
			</g>
			<g transform="matrix(0.81973,0,0,0.794784,645.246,199.921)">
				
					<rect x="1109.015" y="1019.031" transform="matrix(-0.9853 0.1709 -0.1709 -0.9853 2399.2729 1847.002)" fill="#EEEEEE" width="22.262" height="15.458"/>
			</g>
			<g transform="matrix(0.81973,0,0,0.794784,602.085,199.921)">
				
					<rect x="1129.455" y="1019.023" transform="matrix(-0.9844 0.1761 -0.1761 -0.9844 2444.1252 1836.6398)" fill="#EEEEEE" width="22.241" height="15.473"/>
			</g>
			<g transform="matrix(0.81973,0,0,0.794784,559.468,199.921)">
				
					<rect x="1149.637" y="1019.016" transform="matrix(-0.9834 0.1814 -0.1814 -0.9834 2488.5164 1825.8833)" fill="#EEEEEE" width="22.219" height="15.488"/>
			</g>
			<g transform="matrix(0.740136,-0.167319,0.17386,0.76907,194.455,563.332)">
				
					<rect x="1531.187" y="956.102" transform="matrix(0.983 -0.1833 0.1833 0.983 -154.1717 310.8032)" fill="#E9E9E9" width="145.021" height="66.081"/>
			</g>
			<g transform="matrix(0.693316,-0.156734,0.124046,0.54872,309.054,562.374)">
				
					<rect x="1492.037" y="1317.996" transform="matrix(0.9881 -0.1541 0.1541 0.9881 -184.9645 254.5657)" fill="#616161" fill-opacity="0.6039" width="115.38" height="4.995"/>
			</g>
			<g transform="matrix(0.32971,-0.074536,0.106576,0.47144,1121.68,439.989)">
				
					<rect x="715.25" y="1429.861" transform="matrix(0.9877 -0.1566 0.1566 0.9877 -214.6763 138.9151)" fill="#616161" fill-opacity="0.6588" width="118.579" height="4.861"/>
			</g>
			<g transform="matrix(0.191124,-0.0432064,0.121729,0.538469,1440.45,367.495)">
				
					<rect x="-385.266" y="1294.881" transform="matrix(0.9981 -0.0621 0.0621 0.9981 -81.1985 -17.7423)" fill="#616161" fill-opacity="0.6863" width="118.519" height="4.863"/>
			</g>
			<g transform="matrix(0.191124,-0.0432064,0.121729,0.538469,1527.23,344.287)">
				<rect x="-557.691" y="1297.102" fill="#616161" fill-opacity="0.6863" width="107.891" height="5.342"/>
			</g>
			<g transform="matrix(0.919519,-0.207871,0.156734,0.693316,-246.869,604.15)">
				<path fill="#FF9097" d="M1791.073,1191.828l0.098,0.053l0.098,0.061l0.092,0.069l0.086,0.077l0.086,0.085l0.08,0.091
					l0.073,0.099l0.073,0.105l0.061,0.111l0.043,0.081l0.061,0.125l0.037,0.09l0.031,0.083l0.037,0.104l0.037,0.103l0.03,0.098
					l0.031,0.097l0.067,0.198l0.006,0.035l0.141-0.127l0.147-0.132l0.147-0.134l0.153-0.136l0.153-0.135l0.086-0.07l0.08-0.069
					l0.08-0.068l0.086-0.068l0.086-0.068l0.086-0.067l0.086-0.067l0.086-0.066l0.086-0.066l0.092-0.065l0.086-0.064l0.092-0.063
					l0.092-0.062l0.092-0.061l0.098-0.059l0.098-0.059l0.098-0.056l0.098-0.055l0.098-0.053l0.098-0.051l0.104-0.048l0.11-0.047
					l0.104-0.044l0.11-0.041l0.11-0.039l0.104-0.033l0.061-0.018l0.061-0.015l0.055-0.015l0.061-0.013l0.055-0.012l0.061-0.011
					l0.061-0.01l0.061-0.009l0.061-0.007l0.061-0.007l0.061-0.005l0.061-0.004l0.067-0.002l0.061-0.001l0.061,0.001l0.086,0.003
					l0.092,0.008l0.104,0.018l0.11,0.026l0.098,0.033l0.098,0.039l0.092,0.045l0.092,0.049l0.073,0.05l0.08,0.054l0.073,0.059
					l0.061,0.056l0.061,0.058l0.024,0.02l0.006-0.075l0.006-0.147l0.012-0.147l0.012-0.147l0.006-0.146l0.012-0.146l0.006-0.144
					l0.006-0.142l0.006-0.14l0.006-0.136l0.012-0.271l0.006-0.255l0.006-0.241l0.006-0.224l0.006-0.204v-0.184v-0.162v-0.133v-0.192
					l0.006-0.493v-0.376v-0.288v-0.116v-0.107v-0.103v-0.105l-0.006-0.111v-0.128l-0.006-0.148l-0.006-0.171l-0.024-0.481
					l-0.018-0.056l-0.031-0.133l-0.031-0.136l-0.018-0.138l-0.012-0.14l-0.006-0.141v-0.141l0.006-0.141l0.012-0.14l0.024-0.138
					l0.018-0.103l0.025-0.134l0.031-0.135l0.037-0.113l0.037-0.117l0.055-0.15l0.037-0.091l0.049-0.092l0.043-0.089l0.006-0.007
					l0.055-0.096l0.067-0.091l0.061-0.087l0.006-0.005l0.067-0.083l0.08-0.078l0.073-0.072l0.08-0.066l0.086-0.06l0.006-0.002
					l0.092-0.058l0.098-0.05l0.098-0.042l0.104-0.033l0.104-0.024l0.098-0.016h0.006l0.104-0.007l0.104,0.002l0.104,0.011
					l0.104,0.02l0.098,0.028l0.104,0.037l0.098,0.045v0.002l0.092,0.05l0.086,0.057l0.086,0.063l0.08,0.07l0.079,0.076l0.074,0.082
					v0.004l0.067,0.084l0.067,0.09l0.061,0.094l0.055,0.099v0.006l0.043,0.082l0.043,0.085l0.031,0.087l0.006,0.008l0.037,0.101
					l0.031,0.104l0.024,0.081l0.037,0.156l0.031,0.17l0.018,0.143l0.012,0.108l0.006,0.098l0.006,0.091l0.006,0.088l0.006,0.147
					v0.281l0.006,0.124l-0.006,0.181v0.011l0.018,0.387l0.006,0.195l0.006,0.173l0.006,0.16l0.006,0.151v2.074l-0.006,0.18v0.206
					l-0.006,0.23l-0.006,0.251l-0.006,0.271l-0.006,0.288l-0.012,0.299l-0.006,0.159l-0.012,0.16l-0.006,0.163l-0.006,0.165
					l-0.012,0.167l-0.012,0.17l-0.012,0.171l-0.012,0.173l-0.012,0.175l-0.012,0.176l-0.018,0.177l-0.012,0.178l-0.018,0.178
					l-0.018,0.179l-0.018,0.18l-0.025,0.179l-0.018,0.179l-0.025,0.18l-0.024,0.179l-0.031,0.179l-0.024,0.178l-0.037,0.177
					l-0.031,0.178l-0.031,0.171l-0.018,0.091l-0.024,0.089l-0.018,0.089l-0.018,0.088l-0.025,0.088l-0.018,0.084l-0.018,0.087
					l-0.024,0.088l-0.025,0.088l-0.031,0.088l-0.025,0.084l-0.025,0.087l-0.031,0.089l-0.031,0.086l-0.031,0.086l-0.031,0.088
					l-0.037,0.088l-0.031,0.088l-0.043,0.087l-0.037,0.088l-0.043,0.089l-0.043,0.086l-0.049,0.089l-0.049,0.091l-0.049,0.086
					l-0.061,0.089l-0.061,0.091l-0.061,0.086l-0.067,0.086l-0.073,0.088l-0.074,0.084l-0.079,0.082l-0.086,0.079l-0.092,0.076
					l-0.098,0.073l-0.104,0.066l-0.104,0.063l-0.11,0.054l-0.116,0.048l-0.11,0.038l-0.092,0.025l-0.092,0.018l-0.086,0.013
					l-0.092,0.008l-0.092,0.002l-0.092-0.003l-0.092-0.009l-0.092-0.014l-0.086-0.02l-0.086-0.024l-0.086-0.029l-0.079-0.032
					l-0.079-0.037l-0.08-0.041l-0.067-0.042l-0.073-0.045l-0.067-0.048l-0.061-0.049l-0.061-0.049l-0.055-0.051l-0.055-0.053
					l-0.049-0.051l-0.049-0.052l-0.055-0.062l-0.08-0.094l-0.073-0.103l-0.073-0.103l-0.061-0.099l-0.061-0.099l-0.055-0.097
					l-0.049-0.094l-0.043-0.091l-0.043-0.089l-0.043-0.089l-0.037-0.085l-0.037-0.085l-0.037-0.084l-0.031-0.081l-0.031-0.079
					l-0.031-0.082l-0.055-0.148l-0.006-0.026l-0.03,0.018l-0.055,0.036l-0.055,0.037l-0.055,0.04l-0.061,0.041l-0.061,0.043
					l-0.061,0.045l-0.061,0.047l-0.061,0.048l-0.061,0.05l-0.061,0.051l-0.067,0.053l-0.061,0.054l-0.067,0.054l-0.061,0.055
					l-0.135,0.117l-0.135,0.118l-0.135,0.121l-0.135,0.123l-0.141,0.125l-0.276,0.25l-0.135,0.125l-0.141,0.125l-0.141,0.123
					l-0.141,0.119l-0.073,0.062l-0.067,0.058l-0.073,0.059l-0.073,0.058l-0.073,0.056l-0.079,0.056l-0.074,0.056l-0.092,0.063
					l-0.073,0.051l-0.098,0.054l-0.104,0.048l-0.104,0.04l-0.11,0.032l-0.104,0.024l-0.11,0.015l-0.104,0.007l-0.11-0.001
					l-0.104-0.01l-0.098-0.016l-0.098-0.023l-0.092-0.028l-0.092-0.034l-0.08-0.037l-0.086-0.042l-0.073-0.043l-0.073-0.045
					l-0.061-0.047l-0.061-0.047l-0.061-0.049l-0.067-0.057l-0.092-0.089l-0.086-0.099l-0.086-0.098l-0.073-0.094l-0.061-0.093
					l-0.067-0.094l-0.055-0.091l-0.049-0.088l-0.049-0.088l-0.049-0.087l-0.018-0.041l-0.049,0.051l-0.116,0.112l-0.104,0.109
					l-0.11,0.105l-0.098,0.099l-0.104,0.096l-0.098,0.091l-0.092,0.083l-0.055,0.046l-0.049,0.045l-0.055,0.044l-0.061,0.045
					l-0.074,0.051l-0.086,0.057l-0.116,0.065l-0.073,0.034l-0.073,0.03l-0.074,0.025l-0.073,0.022l-0.073,0.014l-0.098,0.016
					l-0.104,0.007h-0.086l-0.086-0.007l-0.086-0.012l-0.006-0.001l-0.098-0.023l-0.104-0.031l-0.049-0.017l-0.073-0.032
					l-0.073-0.036l-0.074-0.039l-0.073-0.043l-0.073-0.046l-0.067-0.049l-0.061-0.05l-0.061-0.05l-0.061-0.055l-0.055-0.058
					l-0.055-0.056l-0.049-0.054l-0.061-0.07l-0.079-0.105l-0.08-0.116l-0.073-0.116l-0.061-0.113l-0.061-0.111l-0.049-0.107
					l-0.049-0.105l-0.043-0.102l-0.037-0.1l-0.037-0.095l-0.031-0.094l-0.031-0.09l-0.025-0.086l-0.024-0.087l-0.024-0.084
					l-0.025-0.08l-0.018-0.084l-0.043-0.149l-0.031-0.145l-0.037-0.138l-0.024-0.13l-0.031-0.121l-0.025-0.112l-0.025-0.081
					l-0.018-0.001l-0.031-0.001l-0.037-0.001l-0.037,0.001l-0.037,0.001l-0.043,0.002l-0.043,0.002l-0.043,0.003l-0.043,0.004
					l-0.043,0.005l-0.049,0.006l-0.043,0.006l-0.049,0.007l-0.049,0.008l-0.049,0.009l-0.049,0.01l-0.055,0.01l-0.049,0.011
					l-0.055,0.012l-0.055,0.013l-0.049,0.014l-0.055,0.014l-0.055,0.015l-0.055,0.015l-0.116,0.034l-0.116,0.036l-0.116,0.038
					l-0.116,0.04l-0.116,0.043l-0.116,0.044l-0.116,0.047l-0.122,0.048l-0.116,0.05l-0.116,0.051l-0.122,0.052l-0.116,0.053
					l-0.11,0.054l-0.116,0.054l-0.116,0.054l-0.11,0.056l-0.104,0.056l-0.11,0.055l-0.104,0.055l-0.104,0.055l-0.098,0.054
					l-0.098,0.053l-0.092,0.053l-0.092,0.051l-0.086,0.05l-0.086,0.048l-0.153,0.094l-0.141,0.084l-0.116,0.075l-0.098,0.062
					l-0.049,0.036l-0.018,0.018l-0.098,0.071l-0.092,0.063l-0.098,0.055l-0.098,0.046l-0.104,0.037l-0.006,0.002l-0.104,0.028
					l-0.11,0.019l-0.104,0.01l-0.11,0.001l-0.104-0.009l-0.104-0.018l-0.104-0.027l-0.104-0.037l-0.104-0.045v-0.001l-0.098-0.053
					l-0.092-0.061l-0.092-0.069l-0.086-0.076l-0.086-0.084l-0.079-0.091l-0.073-0.097l-0.073-0.104l-0.061-0.109l-0.061-0.115
					l-0.055-0.119l-0.043-0.124l-0.043-0.128l-0.037-0.131l-0.031-0.134l-0.018-0.136l-0.018-0.138l-0.006-0.138v-0.139v-0.139
					l0.012-0.138l0.018-0.137l0.025-0.135l0.037-0.132l0.037-0.13l0.043-0.126v-0.002l0.049-0.114l0.049-0.11l0.061-0.106
					l0.061-0.102l0.061-0.096l0.073-0.091l0.073-0.085l0.006-0.006l0.08-0.078l0.079-0.072l0.037-0.029l0.055-0.046l0.055-0.041
					l0.098-0.066l0.11-0.076l0.135-0.084l0.147-0.094l0.165-0.103l0.184-0.109l0.098-0.059l0.104-0.059l0.11-0.061l0.104-0.061
					l0.116-0.062l0.116-0.064l0.122-0.064l0.122-0.065l0.122-0.065l0.129-0.066l0.135-0.065l0.135-0.065l0.135-0.065l0.135-0.064
					l0.141-0.064l0.147-0.063l0.141-0.062l0.147-0.061l0.147-0.06l0.153-0.058l0.147-0.057l0.153-0.054l0.153-0.053l0.153-0.05
					l0.159-0.048l0.153-0.045l0.08-0.023l0.079-0.021l0.079-0.021l0.074-0.02l0.079-0.018l0.08-0.018l0.079-0.017l0.08-0.016
					l0.086-0.015l0.08-0.014l0.079-0.014l0.08-0.012l0.079-0.011l0.08-0.01l0.086-0.009l0.08-0.007l0.08-0.006l0.086-0.005
					l0.079-0.004l0.086-0.002l0.079-0.001l0.086,0.001l0.08,0.002l0.086,0.005l0.086,0.006l0.086,0.008l0.086,0.01l0.086,0.012
					l0.086,0.015l0.086,0.017l0.086,0.02l0.086,0.022l0.086,0.024l0.092,0.028l0.086,0.031l0.092,0.034l0.086,0.038l0.086,0.041
					l0.092,0.045l0.092,0.049l0.061,0.039l0.067,0.041l0.061,0.043l0.055,0.045l0.061,0.047l0.11,0.099l0.055,0.05l0.049,0.053
					l0.049,0.052l0.043,0.054l0.055,0.064l0.073,0.099l0.08,0.11l0.135,0.22l0.061,0.108l0.049,0.106l0.055,0.107l0.043,0.104
					l0.043,0.102l0.037,0.096l0.037,0.098l0.018,0.054l0.098-0.103l0.367-0.394l0.153-0.159l0.122-0.129l0.098-0.102l0.061-0.064
					l0.031-0.028l0.086-0.069l0.08-0.061l0.086-0.055l0.092-0.048v-0.001l0.098-0.045l0.104-0.037l0.104-0.028l0.104-0.019
					l0.104-0.009l0.11-0.001l0.104,0.009l0.104,0.018l0.104,0.026l0.104,0.036L1791.073,1191.828z"/>
			</g>
			<g transform="matrix(1.03076,0,0,1.03076,-61.604,-20.3015)">
				<circle fill="#93DA84" cx="1611.874" cy="1006.62" r="8.613"/>
			</g>
			<g transform="matrix(1,0,0,1,1.46484,-3.98534)">
				
					<path fill="none" stroke="#FFFFFF" stroke-width="4" stroke-linecap="round" stroke-linejoin="round" stroke-miterlimit="1.5" d="
					M1592.914,1025.277l5.141,2.611l5.508-12.247"/>
			</g>
		</g>
	</g>
</g>
<g transform="matrix(0.438128,0,0,0.470043,494.465,165.659)">
	<g transform="matrix(1,0,0,1,-300,-300)">
		<g transform="matrix(1,0,0,1,-650,0)">
			
				<rect id="Artboard21" x="366.505" y="509.262" serif:id="Artboard2" transform="matrix(-0.9981 0.0617 -0.0617 -0.9981 1068.9445 1448.5402)" fill="none" width="291.208" height="463.022">
			</rect>
			<g transform="matrix(0.680505,0,0,0.680505,693.243,-31.8092)">
				<g>
					<g>
						<g transform="matrix(1.67629,0,0,1.67629,-613.593,-466.681)">
							<g>
								<g transform="matrix(1.56836,0,0,1,-399.763,-0.162)">
									
										<rect x="424.553" y="974.518" transform="matrix(-0.9981 0.0617 -0.0617 -0.9981 912.6683 1984.2722)" fill="#E0DFD8" width="2.294" height="63.417"/>
								</g>
								<g>
									
										<rect x="157.76" y="942.609" transform="matrix(-0.9953 0.0965 -0.0965 -0.9953 505.5507 1959.7195)" fill="#80CBC8" width="95.262" height="98.949"/>
									<g transform="matrix(1,0,0,1,0.123,0)">
										
											<rect x="157.637" y="952.503" transform="matrix(-0.9953 0.0965 -0.0965 -0.9953 501.7399 1886.0164)" fill="#E0DFD8" width="95.261" height="5.273"/>
									</g>
									<path fill="#6266AB" d="M272.253,953.055H138.378l16.445-31.124H256.13L272.253,953.055z"/>
									<g>
										<g transform="matrix(1.68797,0,0,1,-427.626,-0.161)">
											
												<rect x="384.265" y="1016.103" transform="matrix(-0.9953 0.0965 -0.0965 -0.9953 866.735 2007.3442)" fill="#E0DFD8" width="1.132" height="17.052"/>
										</g>
										<g transform="matrix(1.75045,0,0,1,-455.438,-0.161)">
											
												<rect x="382.532" y="1016.03" transform="matrix(-0.9869 0.1615 -0.1615 -0.9869 926.6254 1973.9441)" fill="#E0DFD8" width="1.122" height="17.198"/>
										</g>
										<g transform="matrix(1.75308,0,0,1,-446.358,-0.161)">
											
												<rect x="372.856" y="1015.802" transform="matrix(-0.9613 0.2754 -0.2754 -0.9613 1014.5148 1906.8252)" fill="#E0DFD8" width="1.092" height="17.655"/>
										</g>
										<g transform="matrix(1.79632,0,0,1,-460.001,-0.161)">
											
												<rect x="367.925" y="1015.133" transform="matrix(-0.8937 0.4487 -0.4487 -0.8937 1157.4822 1774.9663)" fill="#E0DFD8" width="1.014" height="18.992"/>
										</g>
									</g>
									<g>
										
											<rect x="162.347" y="959.046" transform="matrix(-0.7426 0.6698 -0.6698 -0.7426 945.3584 1582.3585)" fill="#FFFFFF" width="12.448" height="27.636"/>
										
											<rect x="163.039" y="960.984" transform="matrix(-0.7426 0.6698 -0.6698 -0.7426 945.357 1582.3584)" fill="#6266AB" width="11.064" height="23.76"/>
										
											<rect x="175.212" y="961.127" transform="matrix(-0.7426 0.6698 -0.6698 -0.7426 958.7348 1577.3228)" fill="#3F469D" width="2.03" height="23.581"/>
										
											<rect x="163.039" y="964.973" transform="matrix(-0.7426 0.6698 -0.6698 -0.7426 941.57 1572.5061)" fill="#3F469D" width="11.064" height="4.474"/>
										
											<rect x="162.428" y="973.47" transform="matrix(-0.7426 0.6698 -0.6698 -0.7426 943.9875 1586.5446)" fill="#3F469D" width="9.307" height="2.448"/>
										
											<rect x="162.605" y="971.943" transform="matrix(-0.7426 0.6698 -0.6698 -0.7426 945.5969 1582.9761)" fill="#FFFFFF" width="11.934" height="2.552"/>
									</g>
									<g>
										<g>
											
												<rect x="162.536" y="987.034" transform="matrix(-0.7426 0.6698 -0.6698 -0.7426 968.5075 1641.064)" fill="#FFFFFF" width="12.654" height="39.265"/>
											
												<rect x="163.534" y="989.787" transform="matrix(-0.7426 0.6698 -0.6698 -0.7426 968.5095 1641.0643)" fill="#6266AB" width="10.661" height="33.759"/>
											
												<rect x="175.164" y="989.882" transform="matrix(-0.7426 0.6698 -0.6698 -0.7426 981.2792 1636.2264)" fill="#3F469D" width="2.03" height="33.64"/>
											
												<rect x="162.798" y="1005.813" transform="matrix(-0.7426 0.6698 -0.6698 -0.7426 968.5092 1641.0651)" fill="#FFFFFF" width="12.131" height="1.708"/>
										</g>
										
											<rect x="163.534" y="995.79" transform="matrix(-0.7426 0.6698 -0.6698 -0.7426 962.723 1626.0099)" fill="#3F469D" width="10.661" height="4.474"/>
										
											<rect x="162.843" y="1006.608" transform="matrix(-0.7426 0.6698 -0.6698 -0.7426 966.4553 1644.4849)" fill="#3F469D" width="8.673" height="2.748"/>
									</g>
									<g>
										<g>
											
												<rect x="205.486" y="978.395" transform="matrix(-0.7426 0.6698 -0.6698 -0.7426 1037.563 1597.2429)" fill="#FFFFFF" width="12.654" height="39.265"/>
											
												<rect x="206.483" y="981.147" transform="matrix(-0.7426 0.6698 -0.6698 -0.7426 1037.5632 1597.2421)" fill="#6266AB" width="10.661" height="33.76"/>
											
												<rect x="218.113" y="981.239" transform="matrix(-0.7426 0.6698 -0.6698 -0.7426 1050.3326 1592.4031)" fill="#3F469D" width="2.03" height="33.645"/>
											
												<rect x="205.747" y="997.172" transform="matrix(-0.7426 0.6698 -0.6698 -0.7426 1037.5626 1597.2418)" fill="#FFFFFF" width="12.131" height="1.709"/>
										</g>
										
											<rect x="206.483" y="987.151" transform="matrix(-0.7426 0.6698 -0.6698 -0.7426 1031.7761 1582.186)" fill="#3F469D" width="10.661" height="4.472"/>
										
											<rect x="205.792" y="997.967" transform="matrix(-0.7426 0.6698 -0.6698 -0.7426 1035.5076 1600.6621)" fill="#3F469D" width="8.673" height="2.749"/>
									</g>
									<g>
										<g>
											
												<rect x="240.487" y="977.518" transform="matrix(-0.7426 0.6698 -0.6698 -0.7426 1108.7793 1596.5144)" fill="#FFFFFF" width="14.148" height="67.664"/>
											
												<rect x="241.929" y="982.305" transform="matrix(-0.7426 0.6698 -0.6698 -0.7426 1109.9705 1599.6086)" fill="#6266AB" width="11.265" height="61.641"/>
										</g>
										
											<rect x="254.656" y="982.93" transform="matrix(-0.7426 0.6698 -0.6698 -0.7426 1123.3516 1592.666)" fill="#3F469D" width="1.861" height="58.592"/>
										
											<rect x="245.696" y="996.767" transform="matrix(-0.7426 0.6698 -0.6698 -0.7426 1107.2634 1599.8566)" fill="#3F469D" width="0.93" height="31.924"/>
										
											<rect x="241.941" y="994.024" transform="matrix(-0.7426 0.6698 -0.6698 -0.7426 1098.723 1570.202)" fill="#3F469D" width="11.298" height="4.473"/>
										
											<rect x="241.941" y="1002.685" transform="matrix(-0.7426 0.6698 -0.6698 -0.7426 1104.0496 1584.0599)" fill="#3F469D" width="11.298" height="3.057"/>
										
											<rect x="241.941" y="1023.269" transform="matrix(-0.7426 0.6698 -0.6698 -0.7426 1117.5719 1619.2402)" fill="#3F469D" width="11.298" height="2.267"/>
										
											<rect x="241.719" y="1001.173" transform="matrix(-0.7426 0.6698 -0.6698 -0.7426 1103.182 1581.0035)" fill="#FFFFFF" width="12.049" height="2.691"/>
										
											<rect x="241.719" y="1021.595" transform="matrix(-0.7426 0.6698 -0.6698 -0.7426 1116.8606 1616.5902)" fill="#FFFFFF" width="12.049" height="2.692"/>
										
											<rect x="247.274" y="994.629" transform="matrix(-0.7426 0.6698 -0.6698 -0.7426 1109.4886 1597.4143)" fill="#FFFFFF" width="0.937" height="34.614"/>
									</g>
									<g>
										<g transform="matrix(1.66534,0,0,1,-382.04,0)">
											
												<rect x="345.339" y="963.543" transform="matrix(-0.7426 0.6698 -0.6698 -0.7426 1277.1763 1521.4149)" fill="#E0DFD8" width="1.707" height="85.241"/>
										</g>
										<g transform="matrix(1.50009,0,0,1,-311.946,0)">
											
												<rect x="360.245" y="949.053" transform="matrix(-0.5541 0.8324 -0.8324 -0.5541 1398.4125 1263.323)" fill="#E0DFD8" width="1.273" height="114.222"/>
										</g>
										<g transform="matrix(1,0,0,1.21897,0,-147.004)">
											
												<rect x="206.712" y="949.904" transform="matrix(-0.4056 0.914 -0.914 -0.4056 1170.4371 1147.6812)" fill="#E0DFD8" width="10.712" height="8.972"/>
										</g>
									</g>
									<g transform="matrix(1.01102,0,0,2.08406,-7.70351,-747.921)">
										
											<rect x="222.264" y="851.344" transform="matrix(-0.4758 0.8796 -0.8796 -0.4758 1101.4624 1051.1395)" fill="#E0DFD8" width="30.47" height="4.908"/>
									</g>
									<path fill="#6266AB" d="M275.784,982.969h-85.312l10.481-23.583h64.557L275.784,982.969z"/>
								</g>
							</g>
							<path fill="#2F39B3" d="M200.953,959.387h64.557l2.321,5.325h-68.993L200.953,959.387z"/>
						</g>
						<g transform="matrix(0.974551,0,0,0.957475,-58.2232,55.736)">
							<path fill="#6CA663" d="M-242.086,1090.562v0.37c0.105-0.124,0.206-0.248,0.315-0.37H-242.086z"/>
						</g>
						<g transform="matrix(1.07693,0,0,0.957475,-60.7578,143.233)">
							<path fill="#99CE81" d="M-275.169,884.781c0.17-7.597-1.129-15.305-1.326-22.93c-10.917,1.734-21.744,5.661-32.861,2.496
								c0.311,7.663,0.624,15.326,0.936,22.99C-297.171,890.539-286.217,886.482-275.169,884.781z"/>
						</g>
						<g transform="matrix(0.974551,0,0,0.957475,-38.9561,143.233)">
							<path fill="#99CE81" d="M-314.253,960.514c-4.903,5.889-9.127,12.49-14.473,17.914c7.006,6.966,14.753,13.381,17.989,23.145
								c6.161-4.569,12.321-9.138,18.481-13.707C-296.13,976.183-306.463,969.292-314.253,960.514z"/>
						</g>
						<g transform="matrix(0.974551,0,0,0.957475,-38.9561,143.233)">
							<path fill="#99CE81" d="M-321.377,923.82c11.072,6.611,24.788,1.416,35.86,8.029c1.223-5.467,2.447-10.933,3.671-16.398
								c-11.071-6.612-24.787-1.417-35.86-8.028C-318.93,912.888-320.153,918.354-321.377,923.82z"/>
						</g>
						<g transform="matrix(0.974551,0,0,0.957475,-38.9561,142.314)">
							<path fill="#99CE81" d="M-260.879,1033.398c3.953-0.321,7.622-1.318,11.122-2.717v-29.674
								c-6.592,3.958-13.427,7.344-21.415,7.993C-267.741,1017.133-264.309,1025.265-260.879,1033.398z"/>
						</g>
						<g transform="matrix(0.974551,0,0,0.957475,-40.8272,143.233)">
							<path fill="#9FBC90" d="M-249.012,916.295v-0.018c-0.006,0.001-0.011,0.001-0.016,0.002
								C-249.023,916.284-249.018,916.289-249.012,916.295z"/>
						</g>
						<g transform="matrix(0.974551,0,0,0.957475,-38.9561,143.233)">
							<path fill="#99CE81" d="M-314.98,959.687c3.775-4.529,7.955-8.633,13.368-11.444c-5.247-5.504-10.492-11.007-15.739-16.51
								c-16.168,8.394-21.352,28.312-37.521,36.708c5.245,5.502,10.492,11.007,15.737,16.509c3.7-1.92,6.82-4.447,9.632-7.299
								C-324.137,972.213-319.901,965.59-314.98,959.687z M-314.253,960.514c-4.903,5.889-9.127,12.49-14.473,17.914
								c-3.075,3.119-6.517,5.852-10.68,7.829c-5.751-6.032-11.503-12.066-17.254-18.099c17.334-8.234,22.248-29.499,39.583-37.732
								c5.752,6.033,11.503,12.067,17.254,18.1C-305.757,951.344-310.234,955.689-314.253,960.514z"/>
						</g>
						<g transform="matrix(0.974551,0,0,0.957475,-38.9561,143.233)">
							<path fill="#4D8057" d="M-308.4,950.216c-1.601-1.68-1.439-4.243,0.602-5.475c-2.359-2.474-4.719-4.95-7.078-7.425
								c-2.04,1.231-4.807,1.064-6.417-0.625c-10.544,8.233-16.247,21.542-26.792,29.776c1.601,1.681,1.439,4.242-0.603,5.474
								c2.359,2.476,4.719,4.952,7.078,7.427c2.042-1.233,4.808-1.064,6.418,0.625c1.509-1.179,2.91-2.469,4.249-3.826
								c5.408-5.479,9.675-12.152,14.643-18.089C-313.9,955.211-311.341,952.512-308.4,950.216z M-314.98,959.687
								c-4.921,5.903-9.157,12.526-14.522,17.963c-2.812,2.852-5.933,5.379-9.632,7.299c-5.245-5.502-10.492-11.007-15.737-16.509
								c16.168-8.395,21.353-28.314,37.521-36.708c5.247,5.503,10.492,11.006,15.739,16.51
								C-307.025,951.053-311.205,955.157-314.98,959.687z"/>
						</g>
						<g transform="matrix(0.974551,0,0,0.957475,-38.9561,143.233)">
							<path fill="#99CE81" d="M-320.778,951.02c-0.044-0.105-0.095-0.203-0.147-0.301c-0.163-0.313-0.353-0.604-0.591-0.853
								c-0.651-0.684-1.514-1.035-2.49-1.099c-2.536-0.165-5.864,1.674-8.439,5.166c-0.512,0.693-0.97,1.404-1.383,2.119
								c-2.466,4.267-3.111,8.698-1.141,10.765c2.343,2.457,7.362,0.768,10.93-4.066
								C-320.955,958.571-319.604,953.798-320.778,951.02z M-308.4,950.216c-2.942,2.297-5.501,4.996-7.899,7.863
								c-4.968,5.938-9.236,12.611-14.643,18.089c-1.339,1.356-2.741,2.647-4.249,3.826c-1.61-1.69-4.376-1.858-6.418-0.625
								c-2.359-2.476-4.719-4.952-7.078-7.427c2.042-1.232,2.204-3.794,0.603-5.474c10.544-8.234,16.247-21.544,26.792-29.776
								c1.61,1.688,4.376,1.856,6.417,0.625c2.359,2.476,4.719,4.951,7.078,7.425C-309.838,945.973-310,948.536-308.4,950.216z"/>
						</g>
						<g transform="matrix(0.974551,0,0,0.957475,-38.9561,143.233)">
							<path fill="#4D8057" d="M-321.515,949.866c-0.651-0.684-1.514-1.035-2.49-1.099c-2.536-0.165-5.864,1.674-8.439,5.166
								c-0.512,0.693-0.97,1.404-1.383,2.119c-2.466,4.267-3.111,8.698-1.141,10.765c2.343,2.457,7.362,0.768,10.93-4.066
								c3.084-4.18,4.435-8.954,3.261-11.731c-0.044-0.105-0.095-0.203-0.147-0.301
								C-321.087,950.406-321.278,950.115-321.515,949.866z"/>
						</g>
						<g transform="matrix(0.974551,0,0,0.957475,-38.9561,143.233)">
							<path fill="#99CE81" d="M-328.937,884.618c-0.083,4.505-0.671,8.971-2.312,13.359c7.583,0.572,15.164,1.144,22.746,1.718
								c6.383-17.063-3.108-35.325,3.273-52.389c-7.58-0.573-15.163-1.146-22.743-1.718c-1.973,5.276-2.428,10.666-2.304,16.1
								C-330.105,869.31-328.798,877.019-328.937,884.618z M-330.039,884.781c0.17-7.597-1.129-15.305-1.326-22.93
								c-0.152-5.886,0.355-11.721,2.72-17.416c8.31,0.627,16.623,1.256,24.935,1.883c-7.357,17.725,3.239,36.805-4.119,54.53
								c-8.312-0.627-16.624-1.256-24.935-1.884C-330.834,894.314-330.146,889.569-330.039,884.781z"/>
						</g>
						<g transform="matrix(0.974551,0,0,0.957475,-38.9561,143.233)">
							<path fill="#4D8057" d="M-326.872,884.368c-0.029,2.547-0.215,5.081-0.657,7.597c2.315,0.174,3.91,2.187,3.22,4.468
								c3.409,0.258,6.818,0.515,10.229,0.773c0.69-2.281,2.856-4.009,5.184-3.833c2.313-13.176-2.365-26.88-0.053-40.055
								c-2.313-0.176-3.908-2.187-3.218-4.469c-3.411-0.258-6.822-0.515-10.231-0.773c-0.69,2.282-2.856,4.01-5.184,3.834
								c-0.553,3.145-0.704,6.32-0.65,9.511C-328.1,869.045-326.785,876.76-326.872,884.368z M-331.249,897.977
								c1.641-4.387,2.229-8.854,2.312-13.359c0.139-7.599-1.168-15.308-1.34-22.93c-0.124-5.434,0.331-10.824,2.304-16.1
								c7.58,0.572,15.164,1.145,22.743,1.718c-6.381,17.064,3.11,35.326-3.273,52.389
								C-316.085,899.122-323.666,898.549-331.249,897.977z"/>
						</g>
						<g transform="matrix(0.974551,0,0,0.957475,-38.9561,143.233)">
							<path fill="#99CE81" d="M-313.769,866.796c-1.267-2.853-3.118-4.799-5.152-4.953c-3.385-0.256-5.982,4.36-5.391,10.34
								c0.588,5.98,3.431,11.007,6.755,11.257c1.784,0.135,3.343-1.091,4.338-3.149c0.894-1.847,1.334-4.362,1.055-7.192
								C-312.393,870.778-312.964,868.606-313.769,866.796z M-327.529,891.965c0.442-2.516,0.627-5.051,0.657-7.597
								c0.088-7.608-1.228-15.323-1.358-22.947c-0.054-3.191,0.097-6.366,0.65-9.511c2.327,0.176,4.493-1.553,5.184-3.834
								c3.409,0.258,6.82,0.515,10.231,0.773c-0.69,2.282,0.905,4.294,3.218,4.469c-2.312,13.175,2.366,26.88,0.053,40.055
								c-2.328-0.176-4.495,1.551-5.184,3.833c-3.411-0.258-6.82-0.515-10.229-0.773
								C-323.619,894.153-325.214,892.14-327.529,891.965z"/>
						</g>
						<g transform="matrix(0.974551,0,0,0.957475,-38.9561,143.233)">
							<path fill="#4D8057" d="M-318.92,861.843c-3.385-0.256-5.982,4.36-5.391,10.34c0.588,5.98,3.431,11.007,6.755,11.257
								c1.784,0.135,3.343-1.091,4.338-3.149c0.894-1.847,1.334-4.362,1.055-7.192c-0.229-2.321-0.8-4.493-1.605-6.304
								C-315.035,863.943-316.887,861.996-318.92,861.843z"/>
						</g>
						<g transform="matrix(0.974551,0,0,0.957475,-38.9561,143.233)">
							<path fill="#99CE81" d="M-405.392,926.584c18.086-2.184,29.934-19.013,48.02-21.199c-2.979-6.993-5.96-13.99-8.939-20.983
								c-18.086,2.184-29.934,19.014-48.021,21.197C-411.351,912.595-408.372,919.588-405.392,926.584z M-406.106,927.713
								c-0.067-0.158-0.133-0.315-0.201-0.473c-3.2-7.511-6.399-15.023-9.599-22.533c19.122-1.624,31.187-19.811,50.309-21.433
								c3.266,7.667,6.533,15.337,9.801,23.006c-19,1.613-31.035,19.568-49.943,21.392
								C-405.862,927.684-405.982,927.703-406.106,927.713z"/>
						</g>
						<g transform="matrix(0.974551,0,0,0.957475,-38.9561,143.233)">
							<path fill="#4D8057" d="M-405.749,920.488c2.343-0.438,4.874,0.691,5.788,2.839c12.763-4.008,22.778-14.468,35.54-18.477
								c-0.909-2.135,0.143-4.476,2.488-4.914c-1.341-3.147-2.682-6.294-4.021-9.44c-2.343,0.437-4.875-0.691-5.79-2.837
								c-12.764,4.007-22.777,14.467-35.54,18.475c0.911,2.135-0.143,4.479-2.485,4.915
								C-408.43,914.196-407.088,917.341-405.749,920.488z M-405.392,926.584c-2.98-6.996-5.96-13.989-8.941-20.985
								c18.088-2.183,29.935-19.013,48.021-21.197c2.98,6.993,5.96,13.99,8.939,20.983
								C-375.458,907.571-387.305,924.4-405.392,926.584z"/>
						</g>
						<g transform="matrix(0.974551,0,0,0.957475,-38.9561,143.233)">
							<path fill="#99CE81" d="M-395.125,911.067c1.331,3.124,6.624,3.305,11.662,0.029c5.038-3.274,8.193-8.111,6.886-11.178
								c-1.33-3.124-6.624-3.305-11.662-0.029C-393.278,903.163-396.433,908.001-395.125,911.067z M-405.749,920.488
								c-1.34-3.147-2.681-6.293-4.02-9.438c2.343-0.436,3.396-2.78,2.485-4.915c12.763-4.008,22.776-14.468,35.54-18.475
								c0.914,2.146,3.446,3.274,5.79,2.837c1.34,3.146,2.681,6.293,4.021,9.44c-2.345,0.438-3.397,2.778-2.488,4.914
								c-12.762,4.009-22.777,14.469-35.54,18.477C-400.875,921.179-403.405,920.051-405.749,920.488z"/>
						</g>
						<g transform="matrix(0.974551,0,0,0.957475,-38.9561,143.233)">
							<path fill="#4D8057" d="M-383.464,911.096c5.038-3.274,8.193-8.111,6.886-11.178c-1.33-3.124-6.624-3.305-11.662-0.029
								c-5.039,3.274-8.193,8.111-6.886,11.178C-393.794,914.191-388.502,914.373-383.464,911.096z"/>
						</g>
						<g transform="matrix(0.974551,0,0,0.957475,-38.9561,144.153)">
							<path fill="#99CE81" d="M-266.276,950.072c-4.43,7.062-8.86,14.123-13.288,21.184c7.73,9.318,19.266,12.569,29.807,17.405
								v-1.198c-10.044-4.54-20.907-7.775-28.473-16.265c4.04-6.441,8.081-12.882,12.121-19.321
								c4.556,5.11,10.305,8.316,16.352,11.05v-1.2C-255.925,958.897-261.753,955.525-266.276,950.072z"/>
						</g>
						<g transform="matrix(0.974551,0,0,0.957475,-38.9561,144.153)">
							<path fill="#4D8057" d="M-266.109,951.877c-4.039,6.439-8.081,12.881-12.121,19.321c7.566,8.49,18.429,11.725,28.473,16.265
								v-2.234c-7.798-3.44-15.995-6.245-22.697-11.432c1.241-1.977,0.722-4.699-0.976-6.374c1.817-2.896,3.635-5.793,5.452-8.69
								c1.697,1.674,4.22,1.201,5.455-0.764c3.876,3,8.254,5.203,12.765,7.192v-2.234
								C-255.804,960.193-261.553,956.987-266.109,951.877z"/>
						</g>
						<g transform="matrix(0.974551,0,0,0.957475,-38.9561,144.153)">
							<path fill="#99CE81" d="M-267.978,958.733c-1.817,2.897-3.635,5.794-5.452,8.69c1.698,1.675,2.216,4.397,0.976,6.374
								c6.702,5.187,14.9,7.991,22.697,11.432v-3.833c-1.067-0.255-2.156-0.601-3.237-1.041c-5.566-2.266-8.439-6.715-6.635-9.59
								c1.427-2.276,5.452-2.826,9.873-1.771v-3.833c-4.511-1.99-8.889-4.192-12.765-7.192
								C-263.757,959.935-266.28,960.408-267.978,958.733z"/>
						</g>
						<g transform="matrix(1.02951,0,0,1.03597,-60.0056,124.092)">
							<path fill="#4D8057" d="M-225.295,916.477c-1.804,2.875,1.07,7.324,6.635,9.59c1.081,0.44,2.171,0.786,3.237,1.041v-12.402
								C-219.844,913.651-223.868,914.201-225.295,916.477z"/>
						</g>
						<g transform="matrix(0.974551,0,0,0.957475,-38.9561,143.233)">
							<path fill="#93DA84" d="M-279.684,878.723c0.261,12.176,0.524,24.353,0.786,36.529c9.765,2.983,19.456,2.479,29.125,1.027
								c0.005-0.001,0.01-0.001,0.016-0.002v-1.613c-0.499,0.075-0.997,0.149-1.495,0.218c-8.656,1.21-17.331,1.561-26.063-0.772
								c-0.24-11.107-0.479-22.214-0.719-33.319c9.477,2.531,18.886,1.901,28.277,0.444v-1.607
								C-259.693,881.17-269.649,881.788-279.684,878.723z"/>
						</g>
						<g transform="matrix(0.974551,0,0,0.957475,-38.9561,143.233)">
							<path fill="#4D8057" d="M-278.034,880.79c0.24,11.105,0.479,22.213,0.719,33.319c8.732,2.334,17.407,1.982,26.063,0.772
								c0.498-0.069,0.996-0.144,1.495-0.218v-3.018c-1.427,0.215-2.855,0.409-4.283,0.575c-4.704,0.548-9.414,0.789-14.137,0.425
								c-0.073-3.41-2.892-6.316-6.309-6.997c-0.108-4.995-0.215-9.992-0.323-14.987c3.416,0.681,6.117-1.924,6.045-5.315
								c5.59,0.43,11.162,0.017,16.725-0.755c0.761-0.106,1.522-0.219,2.282-0.336v-1.403v-1.618
								C-259.148,882.692-268.557,883.322-278.034,880.79z"/>
						</g>
						<g transform="matrix(0.974551,0,0,0.957475,-38.9561,143.233)">
							<path fill="#93DA84" d="M-268.765,885.347c0.072,3.391-2.629,5.995-6.045,5.315c0.108,4.995,0.215,9.992,0.323,14.987
								c3.416,0.681,6.236,3.587,6.309,6.997c4.723,0.364,9.433,0.122,14.137-0.425c1.428-0.166,2.856-0.36,4.283-0.575v-7.122
								c-3.143-1.155-5.143-3.261-5.2-5.879c-0.058-2.648,1.963-5.288,5.2-7.419v-6.969c-0.76,0.117-1.521,0.23-2.282,0.336
								C-257.602,885.364-263.175,885.777-268.765,885.347z"/>
						</g>
						<g transform="matrix(0.974551,0,0,0.957475,-40.8272,143.233)">
							<path fill="#99CE81" d="M-217.073,986.119c-2.474,0.201-4.835,0.668-7.116,1.329c-2.768,4.414-5.538,8.827-8.306,13.241
								c-2.004-2.416-4.268-4.418-6.7-6.152c-3.288,1.998-6.523,4.118-9.818,6.097v29.674c14.427-5.768,25.93-18.466,42.232-19.792
								C-210.212,1002.385-213.643,994.252-217.073,986.119z"/>
						</g>
						<g transform="matrix(0.984738,0,0,1.00634,-44.1622,142.745)">
							<path fill="#99CE81" d="M-121.601,935.076c4.34-7.687,8.681-15.373,13.021-23.058
								c-12.062-13.246-31.404-13.596-45.192-23.783c-0.123,0.012-0.243,0.031-0.367,0.042c-0.067-0.158-0.133-0.315-0.201-0.473
								c-1.643-1.262-3.209-2.662-4.664-4.26c-4.34,7.686-8.679,15.372-13.02,23.058c1.221,1.341,2.52,2.544,3.877,3.645
								c2.788-2.01,5.575-4.02,8.363-6.03c1.749,5.526,4.523,10.312,7.837,14.71C-141.142,923.09-129.721,926.159-121.601,935.076z"
								/>
						</g>
						<g transform="matrix(0.974551,0,0,0.957475,-40.8272,143.233)">
							<path fill="#99CE81" d="M-234.819,935.302c6.1-4.65,12.2-9.299,18.298-13.949c-1.241-3.586-3.093-6.707-5.29-9.565
								c-9.08,0.932-18.131,3.125-27.201,4.488v0.018C-243.194,921.802-237.543,927.436-234.819,935.302z"/>
						</g>
						<g transform="matrix(0.974551,0,0,0.957475,-40.8272,143.233)">
							<path fill="#99CE81" d="M-84.494,884.781c0.17-7.597-1.129-15.305-1.326-22.93c-10.917,1.734-21.744,5.661-32.861,2.496
								c0.312,7.663,0.624,15.326,0.936,22.99C-106.496,890.539-95.543,886.482-84.494,884.781z"/>
						</g>
						<g transform="matrix(0.974551,0,0,0.957475,-40.8272,143.233)">
							<path fill="#99CE81" d="M-175.63,988.056c-3.279,0.491-6.559,0.983-9.838,1.475c-2.976,17.406,10.434,32.356,7.459,49.761
								c7.585-1.136,15.17-2.274,22.755-3.411c1.989-11.641-3.346-22.185-6.211-33.098
								C-165.841,997.625-170.844,992.919-175.63,988.056z"/>
						</g>
						<g transform="matrix(0.974551,0,0,0.957475,-40.8272,143.233)">
							<path fill="#99CE81" d="M-198.823,887.804c1.213,1.235,2.426,2.47,3.64,3.705c11.565-5.706,14.652-20.044,26.219-25.749
								c-3.925-3.996-7.85-7.992-11.774-11.989c-9.723,4.796-13.456,15.693-21.27,22.433c0.984,0.233,1.968,0.494,2.953,0.795
								C-198.977,880.602-198.9,884.203-198.823,887.804z"/>
						</g>
						<g transform="matrix(0.974551,0,0,0.957475,-40.8272,143.233)">
							<path fill="#99CE81" d="M-160.885,957.361c-2.442-3.495-4.519-7.255-6.009-11.437c-2.163,1.559-4.326,3.118-6.488,4.678
								c-5.916,4.266-11.832,8.532-17.749,12.798c3.479,9.767,10.151,17.232,17.24,24.394c3.935,3.976,7.995,7.862,11.714,11.995
								c5.004,5.56,9.387,11.568,11.985,18.863c8.079-5.826,16.158-11.651,24.236-17.476
								C-132.473,982.876-150.197,972.655-160.885,957.361z M-166.207,943.653c1.749,5.526,4.523,10.312,7.837,14.71
								c11.063,14.676,28.224,24.957,34.063,43.4c-8.857,6.387-17.716,12.774-26.572,19.16c-2.215-6.994-6.064-12.81-10.586-18.14
								c-4.376-5.158-9.38-9.864-14.165-14.727c-7.215-7.334-13.917-15.037-17.15-25.243c6.07-4.376,12.14-8.752,18.21-13.129
								C-171.782,947.673-168.994,945.663-166.207,943.653z"/>
						</g>
						<g transform="matrix(0.974551,0,0,0.957475,-40.8272,143.233)">
							<path fill="#4D8057" d="M-165.727,955.203c-2.443,1.621-5.611,0.923-6.815-1.878c-3.634,2.621-7.267,5.241-10.901,7.861
								c1.233,2.87,0.523,6.428-1.958,8.217c3.898,6.71,9.257,12.365,14.783,17.902c2.567,2.571,5.169,5.118,7.678,7.731
								c4.288,4.466,8.305,9.128,11.4,14.455c2.465-1.778,5.764-1.109,6.996,1.759c3.634-2.62,7.268-5.24,10.902-7.86
								c-1.233-2.868-0.522-6.428,1.958-8.217c-8.746-15.055-24.843-24.809-33.685-39.793c-0.058-0.099-0.12-0.196-0.177-0.295
								C-165.604,955.129-165.666,955.162-165.727,955.203z M-166.894,945.924c1.49,4.182,3.566,7.942,6.009,11.437
								c10.688,15.294,28.413,25.514,34.93,43.815c-8.078,5.825-16.157,11.651-24.236,17.476
								c-2.598-7.295-6.981-13.303-11.985-18.863c-3.719-4.132-7.779-8.018-11.714-11.995c-7.089-7.163-13.761-14.627-17.24-24.394
								c5.916-4.266,11.832-8.532,17.749-12.798C-171.22,949.042-169.057,947.484-166.894,945.924z"/>
						</g>
						<g transform="matrix(0.974551,0,0,0.957475,-40.8272,143.233)">
							<path fill="#99CE81" d="M-168.341,972.043c-3.515,2.535-2.364,9.067,2.912,14.483c0.14,0.143,0.269,0.288,0.413,0.429
								c0.644,0.628,1.31,1.214,1.984,1.763c5.23,4.261,11.15,6.077,14.287,3.815c3.607-2.602,2.313-9.418-3.326-14.911
								C-157.708,972.127-164.798,969.489-168.341,972.043z M-165.727,955.203c0.061-0.04,0.122-0.074,0.182-0.117
								c0.057,0.099,0.119,0.196,0.177,0.295c8.842,14.984,24.939,24.739,33.685,39.793c-2.48,1.789-3.192,5.348-1.958,8.217
								c-3.634,2.62-7.268,5.24-10.902,7.86c-1.233-2.868-4.531-3.537-6.996-1.759c-3.095-5.328-7.112-9.99-11.4-14.455
								c-2.509-2.613-5.111-5.16-7.678-7.731c-5.526-5.536-10.885-11.192-14.783-17.902c2.481-1.789,3.192-5.348,1.958-8.217
								c3.633-2.62,7.267-5.24,10.901-7.861C-171.338,956.126-168.17,956.823-165.727,955.203z"/>
						</g>
						<g transform="matrix(0.974551,0,0,0.957475,-40.8272,143.233)">
							<path fill="#4D8057" d="M-165.429,986.526c0.14,0.143,0.269,0.288,0.413,0.429c0.644,0.628,1.31,1.214,1.984,1.763
								c5.23,4.261,11.15,6.077,14.287,3.815c3.607-2.602,2.313-9.418-3.326-14.911c-5.638-5.495-12.728-8.132-16.271-5.578
								C-171.857,974.578-170.705,981.111-165.429,986.526z"/>
						</g>
						<g transform="matrix(0.974551,0,0,0.957475,-40.8272,143.233)">
							<path fill="#99CE81" d="M-69.435,959.687c3.775-4.529,7.955-8.633,13.369-11.444c-5.247-5.504-10.492-11.007-15.739-16.51
								c-16.168,8.394-21.352,28.312-37.52,36.708c5.245,5.502,10.492,11.007,15.737,16.509c3.7-1.92,6.82-4.447,9.632-7.299
								C-78.592,972.213-74.356,965.59-69.435,959.687z M-68.708,960.514c-4.903,5.889-9.127,12.49-14.473,17.914
								c-3.075,3.119-6.517,5.852-10.68,7.829c-5.751-6.032-11.503-12.066-17.254-18.099c17.334-8.234,22.248-29.499,39.583-37.732
								c5.752,6.033,11.503,12.067,17.253,18.1C-60.212,951.344-64.689,955.689-68.708,960.514z"/>
						</g>
						<g transform="matrix(0.974551,0,0,0.957475,-40.8272,143.233)">
							<path fill="#4D8057" d="M-62.855,950.216c-1.601-1.68-1.439-4.243,0.602-5.475c-2.359-2.474-4.719-4.95-7.078-7.425
								c-2.04,1.231-4.807,1.064-6.417-0.625c-10.544,8.233-16.247,21.542-26.792,29.776c1.601,1.681,1.439,4.242-0.603,5.474
								c2.359,2.476,4.719,4.952,7.078,7.427c2.042-1.233,4.808-1.064,6.418,0.625c1.509-1.179,2.91-2.469,4.249-3.826
								c5.408-5.479,9.675-12.152,14.643-18.089C-68.355,955.211-65.796,952.512-62.855,950.216z M-69.435,959.687
								c-4.921,5.903-9.157,12.526-14.522,17.963c-2.812,2.852-5.933,5.379-9.632,7.299c-5.245-5.502-10.492-11.007-15.737-16.509
								c16.168-8.395,21.353-28.314,37.52-36.708c5.247,5.503,10.492,11.006,15.739,16.51
								C-61.48,951.053-65.66,955.157-69.435,959.687z"/>
						</g>
						<g transform="matrix(0.974551,0,0,0.957475,-40.8272,143.233)">
							<path fill="#99CE81" d="M-75.233,951.02c-0.044-0.105-0.095-0.203-0.147-0.301c-0.163-0.313-0.353-0.604-0.591-0.853
								c-0.651-0.684-1.514-1.035-2.49-1.099c-2.536-0.165-5.864,1.674-8.44,5.166c-0.512,0.693-0.97,1.404-1.383,2.119
								c-2.466,4.267-3.111,8.698-1.141,10.765c2.343,2.457,7.362,0.768,10.93-4.066C-75.41,958.571-74.059,953.798-75.233,951.02z
								 M-62.855,950.216c-2.942,2.297-5.501,4.996-7.899,7.863c-4.968,5.938-9.236,12.611-14.643,18.089
								c-1.339,1.356-2.741,2.647-4.249,3.826c-1.61-1.69-4.376-1.858-6.418-0.625c-2.359-2.476-4.718-4.952-7.078-7.427
								c2.042-1.232,2.204-3.794,0.603-5.474c10.544-8.234,16.247-21.544,26.792-29.776c1.61,1.688,4.376,1.856,6.417,0.625
								c2.359,2.476,4.719,4.951,7.078,7.425C-64.293,945.973-64.456,948.536-62.855,950.216z"/>
						</g>
						<g transform="matrix(0.974551,0,0,0.957475,-40.8272,143.233)">
							<path fill="#4D8057" d="M-75.97,949.866c-0.651-0.684-1.514-1.035-2.49-1.099c-2.536-0.165-5.864,1.674-8.44,5.166
								c-0.512,0.693-0.97,1.404-1.383,2.119c-2.466,4.267-3.111,8.698-1.141,10.765c2.343,2.457,7.362,0.768,10.93-4.066
								c3.084-4.18,4.435-8.954,3.261-11.731c-0.044-0.105-0.095-0.203-0.147-0.301C-75.543,950.406-75.733,950.115-75.97,949.866z"
								/>
						</g>
						<g transform="matrix(0.974551,0,0,0.95921,-40.8272,142.894)">
							<path fill="#99CE81" d="M-232.495,999.351c2.768-4.414,5.538-8.828,8.306-13.241c1.662-2.647,3.322-5.294,4.982-7.942
								c-7.729-9.319-19.265-12.569-29.806-17.406v1.2c10.044,4.54,20.905,7.775,28.471,16.265
								c-1.755,2.797-3.509,5.594-5.264,8.391c-2.286,3.643-4.571,7.288-6.857,10.932c-1.687-1.893-3.543-3.518-5.512-4.961
								c-3.348-2.453-7.032-4.368-10.839-6.089v1.198c3.435,1.576,6.761,3.324,9.818,5.503
								C-236.762,994.933-234.499,996.935-232.495,999.351z"/>
						</g>
						<g transform="matrix(0.999424,0,0,0.983154,-50.7762,136.96)">
							<path fill="#99CE81" d="M-216.813,972.178c0.766,0.053,1.529,0.378,2.172,1.013c0.599-0.955,1.198-1.909,1.797-2.864
								c1.218-1.942,2.436-3.884,3.655-5.827c-1.696-1.673-2.215-4.395-0.975-6.372c-6.701-5.187-14.899-7.992-22.696-11.432v3.833
								c1.066,0.255,2.154,0.6,3.236,1.04c5.565,2.266,8.439,6.715,6.635,9.591c-1.427,2.275-5.451,2.827-9.871,1.771v3.834
								c4.511,1.99,8.889,4.192,12.765,7.193C-219.329,972.736-218.067,972.092-216.813,972.178z"/>
						</g>
						<g transform="matrix(1.10821,0,0,1.02121,-94.2915,127.263)">
							<path fill="#4D8057" d="M-160.865,935.136c1.804-2.876-1.07-7.324-6.635-9.591c-1.082-0.44-2.17-0.786-3.236-1.04v12.402
								C-166.316,937.963-162.292,937.412-160.865,935.136z"/>
						</g>
						<g transform="matrix(0.974551,0,0,0.957475,-40.8272,143.233)">
							<path fill="#99CE81" d="M-159.847,926.584c18.086-2.184,29.934-19.013,48.02-21.199c-2.979-6.993-5.96-13.99-8.939-20.983
								c-18.086,2.184-29.934,19.014-48.021,21.197C-165.806,912.595-162.827,919.588-159.847,926.584z M-160.561,927.713
								c-0.067-0.158-0.133-0.315-0.201-0.473c-3.2-7.511-6.399-15.023-9.599-22.533c19.122-1.624,31.187-19.811,50.309-21.433
								c3.266,7.667,6.533,15.337,9.801,23.006c-19,1.613-31.035,19.568-49.943,21.392
								C-160.317,927.684-160.437,927.703-160.561,927.713z"/>
						</g>
						<g transform="matrix(0.974551,0,0,0.957475,-40.8272,143.233)">
							<path fill="#4D8057" d="M-160.204,920.488c2.343-0.438,4.874,0.691,5.788,2.839c12.763-4.008,22.778-14.468,35.54-18.477
								c-0.909-2.135,0.143-4.476,2.488-4.914c-1.341-3.147-2.682-6.294-4.021-9.44c-2.343,0.437-4.875-0.691-5.789-2.837
								c-12.764,4.007-22.777,14.467-35.54,18.475c0.911,2.135-0.143,4.479-2.485,4.915
								C-162.885,914.196-161.543,917.341-160.204,920.488z M-159.847,926.584c-2.98-6.996-5.96-13.989-8.941-20.985
								c18.088-2.183,29.935-19.013,48.021-21.197c2.98,6.993,5.96,13.99,8.939,20.983
								C-129.913,907.571-141.76,924.4-159.847,926.584z"/>
						</g>
						<g transform="matrix(0.974551,0,0,0.957475,-40.8272,143.233)">
							<path fill="#99CE81" d="M-149.58,911.067c1.331,3.124,6.624,3.305,11.662,0.029c5.038-3.274,8.193-8.111,6.886-11.178
								c-1.33-3.124-6.624-3.305-11.662-0.029C-147.733,903.163-150.888,908.001-149.58,911.067z M-160.204,920.488
								c-1.34-3.147-2.681-6.293-4.02-9.438c2.343-0.436,3.396-2.78,2.485-4.915c12.763-4.008,22.776-14.468,35.54-18.475
								c0.914,2.146,3.446,3.274,5.789,2.837c1.34,3.146,2.681,6.293,4.021,9.44c-2.345,0.438-3.397,2.778-2.488,4.914
								c-12.762,4.009-22.777,14.469-35.54,18.477C-155.33,921.179-157.86,920.051-160.204,920.488z"/>
						</g>
						<g transform="matrix(0.974551,0,0,0.957475,-40.8272,143.233)">
							<path fill="#4D8057" d="M-137.919,911.096c5.038-3.274,8.193-8.111,6.886-11.178c-1.33-3.124-6.624-3.305-11.662-0.029
								c-5.039,3.274-8.193,8.111-6.886,11.178C-148.249,914.191-142.957,914.373-137.919,911.096z"/>
						</g>
						<g transform="matrix(0.974551,0,0,0.957475,-39.19,143.233)">
							<path fill="#99CE81" d="M-198.919,913.529c-0.185-8.574-0.371-17.149-0.556-25.725c-0.078-3.602-0.155-7.203-0.233-10.804
								c-0.985-0.301-1.969-0.562-2.953-0.795c-15.773-3.73-31.364,0.992-47.003,3.422v1.607
								c15.116-2.345,30.187-6.829,45.419-3.771c0.985,0.198,1.969,0.416,2.955,0.679c0.058,2.663,0.116,5.326,0.173,7.989
								c0.182,8.444,0.364,16.887,0.546,25.33c-7.727-2.064-15.409-2.023-23.074-1.149c-8.682,0.99-17.344,3.043-26.02,4.35v1.613
								c9.07-1.362,18.121-3.556,27.201-4.488C-214.645,910.986-206.807,911.12-198.919,913.529z"/>
						</g>
						<g transform="matrix(0.974551,0,0,0.957475,-39.19,143.221)">
							<path fill="#4D8057" d="M-200.571,911.467c-0.182-8.443-0.364-16.886-0.546-25.33c-0.058-2.663-0.116-5.326-0.173-7.989
								c-0.986-0.263-1.971-0.482-2.955-0.679c-15.232-3.058-30.303,1.426-45.419,3.771v3.021c0.988-0.153,1.976-0.313,2.965-0.482
								c12.077-2.062,24.132-5.102,36.273-4.166c0.073,3.409,2.893,6.316,6.307,6.996c0.108,4.996,0.216,9.991,0.324,14.986
								c-3.415-0.68-6.116,1.924-6.044,5.315c-5.424-0.419-10.829-0.042-16.228,0.685c-7.872,1.06-15.728,2.867-23.597,4.054v3.018
								c8.676-1.307,17.337-3.361,26.02-4.35C-215.979,909.444-208.298,909.402-200.571,911.467z"/>
						</g>
						<g transform="matrix(0.974551,0,0,0.957475,-39.19,143.233)">
							<path fill="#93DA84" d="M-209.839,906.906c-0.073-3.391,2.629-5.995,6.044-5.315c-0.108-4.995-0.215-9.99-0.324-14.986
								c-3.414-0.68-6.234-3.587-6.307-6.996c-12.141-0.936-24.196,2.104-36.273,4.167c-0.988,0.168-1.976,0.329-2.965,0.482v6.969
								c1.594-1.05,3.48-1.977,5.563-2.72c1.467-0.523,3.029-0.955,4.652-1.277c8.615-1.703,15.694,1.422,15.801,6.379
								c0.072,3.263-3.009,6.512-7.637,8.815c-2.281,1.135-4.936,2.041-7.779,2.603c-4.067,0.804-7.79,0.531-10.6-0.502v7.122
								c7.869-1.187,15.725-2.994,23.597-4.054C-220.668,906.863-215.263,906.487-209.839,906.906z"/>
						</g>
						<g transform="matrix(0.990965,0,0,0.999451,-45.5216,137.54)">
							<path fill="#4D8057" d="M-228.394,872.963c2.843-0.562,5.498-1.468,7.779-2.603c4.628-2.303,7.708-5.553,7.637-8.815
								c-0.106-4.957-7.186-8.082-15.801-6.379c-1.623,0.321-3.185,0.754-4.652,1.277c-2.083,0.744-3.969,1.671-5.563,2.72v13.298
								C-236.184,873.494-232.461,873.766-228.394,872.963z"/>
						</g>
						<g transform="matrix(0.974551,0,0,0.957475,-58.2232,55.736)">
							<path fill="#6CA663" d="M-158.098,1090.562h0.332c-0.029-0.059-0.062-0.115-0.089-0.177
								C-157.935,1090.444-158.016,1090.503-158.098,1090.562z"/>
						</g>
						<g transform="matrix(0.976175,0,0,0.960586,-39.8407,143.13)">
							<path fill="#4D8057" d="M-253.783,896.043c0.057,2.618,2.058,4.724,5.2,5.879c14.665,2.02,1.531-8.599,0.147-13.797
								C-251.673,890.256-253.84,893.395-253.783,896.043z"/>
						</g>
						<g transform="matrix(0.973035,0,0,0.957475,-39.6831,143.514)">
							<path fill="#4D8057" d="M-234.25,998.961c2.286-3.644,4.935-7.476,7.22-11.119c1.755-2.797,3.509-5.594,5.264-8.391
								c-7.566-8.489-18.428-11.725-28.471-16.264v2.234c7.798,3.44,15.995,6.245,22.696,11.432
								c-1.24,1.977-0.721,4.699,0.975,6.372c-1.218,1.943-2.437,3.885-3.655,5.827c-0.599,0.954-1.198,1.909-1.797,2.864
								c-0.643-0.635-1.406-0.96-2.172-1.013c-1.254-0.086-2.517,0.558-3.282,1.779c-3.876-3.001-9.048-5.503-13.559-7.493
								l-0.518,1.957c0.635,0.24,1.908,0.955,2.635,1.328c3.223,1.657,6.698,3.48,9.447,5.495
								C-237.5,995.411-235.938,997.067-234.25,998.961z"/>
						</g>
					</g>
				</g>
			</g>
		</g>
	</g>
</g>
</svg>
